<svg version="1.1" viewBox="0.0 0.0 960.0 540.0" fill="none" stroke="none" stroke-linecap="square" stroke-miterlimit="10" xmlns:xlink="http://www.w3.org/1999/xlink" xmlns="http://www.w3.org/2000/svg"><clipPath id="p1.0"><path d="m0 0l960.0 0l0 540.0l-960.0 0l0 -540.0z" clip-rule="nonzero"/></clipPath><g clip-path="url(#p1.0)"><path fill="#f7fafd" d="m0 0l960.0 0l0 540.0l-960.0 0z" fill-rule="evenodd"/><path fill="#000000" fill-opacity="0.0" d="m38.4 11.52l883.19995 0l0 49.92l-883.19995 0z" fill-rule="evenodd"/><path fill="#12213a" d="m69.25938 26.006874l0 6.21875l-0.609375 0q-0.53125 -2.15625 -1.203125 -3.09375q-0.65625 -0.9375 -1.8125 -1.5q-0.640625 -0.296875 -2.25 -0.296875l-1.703125 0l0 17.703125q0 1.75 0.1875 2.203125q0.203125 0.4375 0.765625 0.765625q0.578125 0.328125 1.546875 0.328125l0.765625 0l0 0.625l-12.015625 0l0 -0.625l0.765625 0q1.0 0 1.609375 -0.359375q0.4375 -0.234375 0.6875 -0.8125q0.1875 -0.40625 0.1875 -2.125l0 -17.703125l-1.65625 0q-2.3125 0 -3.375 0.984375q-1.46875 1.359375 -1.859375 3.90625l-0.640625 0l0 -6.21875l20.609375 0zm5.598526 -0.53125q1.109375 0 1.859375 0.765625q0.765625 0.765625 0.765625 1.859375q0 1.078125 -0.765625 1.84375q-0.765625 0.75 -1.859375 0.75q-1.078125 0 -1.84375 -0.75q-0.75 -0.765625 -0.75 -1.84375q0 -1.09375 0.75 -1.859375q0.765625 -0.765625 1.84375 -0.765625zm2.375 7.65625l0 12.546875q0 1.671875 0.390625 2.140625q0.390625 0.46875 1.515625 0.53125l0 0.609375l-8.546875 0l0 -0.609375q1.0625 -0.03125 1.5625 -0.609375q0.34375 -0.390625 0.34375 -2.0625l0 -9.234375q0 -1.6875 -0.390625 -2.140625q-0.390625 -0.46875 -1.515625 -0.546875l0 -0.625l6.640625 0zm16.362991 11.75l0.53125 0.40625q-1.125 2.09375 -2.796875 3.125q-1.65625 1.015625 -3.53125 1.015625q-3.171875 0 -5.078125 -2.375q-1.890625 -2.390625 -1.890625 -5.75q0 -3.21875 1.734375 -5.671875q2.078125 -2.96875 5.734375 -2.96875q2.453125 0 3.890625 1.234375q1.453125 1.234375 1.453125 2.765625q0 0.953125 -0.578125 1.53125q-0.578125 0.578125 -1.53125 0.578125q-1.0 0 -1.65625 -0.65625q-0.640625 -0.65625 -0.796875 -2.359375q-0.109375 -1.0625 -0.5 -1.484375q-0.375 -0.421875 -0.90625 -0.421875q-0.8125 0 -1.390625 0.859375q-0.875 1.296875 -0.875 4.0q0 2.234375 0.703125 4.28125q0.71875 2.03125 1.953125 3.03125q0.921875 0.71875 2.203125 0.71875q0.828125 0 1.5625 -0.390625q0.75 -0.390625 1.765625 -1.46875zm12.02272 -2.125l-9.875 0l0 -3.515625l9.875 0l0 3.515625zm22.68142 -16.75l0 6.21875l-0.6093674 0q-0.53125 -2.15625 -1.203125 -3.09375q-0.65625 -0.9375 -1.8125 -1.5q-0.640625 -0.296875 -2.25 -0.296875l-1.703125 0l0 17.703125q0 1.75 0.1875 2.203125q0.203125 0.4375 0.765625 0.765625q0.578125 0.328125 1.546875 0.328125l0.765625 0l0 0.625l-12.015625 0l0 -0.625l0.765625 0q1.0 0 1.609375 -0.359375q0.4375 -0.234375 0.6875 -0.8125q0.1875 -0.40625 0.1875 -2.125l0 -17.703125l-1.65625 0q-2.3125 0 -3.375 0.984375q-1.46875 1.359375 -1.859375 3.90625l-0.640625 0l0 -6.21875l20.609367 0zm7.9800262 20.625q-2.90625 2.546875 -5.203125 2.546875q-1.359375 0 -2.25 -0.890625q-0.8906174 -0.890625 -0.8906174 -2.21875q0 -1.8125 1.5468674 -3.25q1.5625 -1.453125 6.796875 -3.859375l0 -1.59375q0 -1.796875 -0.203125 -2.25q-0.1875 -0.46875 -0.734375 -0.8125q-0.546875 -0.359375 -1.21875 -0.359375q-1.09375 0 -1.8125 0.5q-0.4375 0.296875 -0.4375 0.703125q0 0.359375 0.46875 0.890625q0.640625 0.71875 0.640625 1.390625q0 0.84375 -0.625 1.421875q-0.609375 0.578125 -1.609375 0.578125q-1.0625 0 -1.78125 -0.640625q-0.71875 -0.640625 -0.71875 -1.5q0 -1.21875 0.96875 -2.328125q0.96875 -1.109375 2.6875 -1.703125q1.734375 -0.59375 3.59375 -0.59375q2.25 0 3.5625 0.953125q1.3125 0.953125 1.703125 2.078125q0.234375 0.703125 0.234375 3.265625l0 6.140625q0 1.078125 0.078125 1.359375q0.09375 0.28125 0.25 0.421875q0.171875 0.125 0.390625 0.125q0.4375 0 0.90625 -0.625l0.5 0.40625q-0.84375 1.265625 -1.75 1.828125q-0.90625 0.5625 -2.046875 0.5625q-1.359375 0 -2.125 -0.625q-0.765625 -0.640625 -0.921875 -1.921875zm0 -1.25l0 -5.28125q-2.046875 1.1875 -3.046875 2.5625q-0.671875 0.921875 -0.671875 1.84375q0 0.78125 0.5625 1.375q0.421875 0.453125 1.1875 0.453125q0.84375 0 1.96875 -0.953125zm21.5 -0.5l0.53125 0.40625q-1.125 2.09375 -2.796875 3.125q-1.65625 1.015625 -3.53125 1.015625q-3.171875 0 -5.078125 -2.375q-1.890625 -2.390625 -1.890625 -5.75q0 -3.21875 1.734375 -5.671875q2.078125 -2.96875 5.734375 -2.96875q2.453125 0 3.890625 1.234375q1.453125 1.234375 1.453125 2.765625q0 0.953125 -0.578125 1.53125q-0.578125 0.578125 -1.53125 0.578125q-1.0 0 -1.65625 -0.65625q-0.640625 -0.65625 -0.796875 -2.359375q-0.109375 -1.0625 -0.5 -1.484375q-0.375 -0.421875 -0.90625 -0.421875q-0.8125 0 -1.390625 0.859375q-0.875 1.296875 -0.875 4.0q0 2.234375 0.703125 4.28125q0.71875 2.03125 1.953125 3.03125q0.921875 0.71875 2.203125 0.71875q0.828125 0 1.5625 -0.390625q0.75 -0.390625 1.765625 -1.46875zm12.02272 -2.125l-9.875 0l0 -3.515625l9.875 0l0 3.515625zm22.681427 -16.75l0 6.21875l-0.609375 0q-0.53125 -2.15625 -1.203125 -3.09375q-0.65625 -0.9375 -1.8125 -1.5q-0.640625 -0.296875 -2.25 -0.296875l-1.703125 0l0 17.703125q0 1.75 0.1875 2.203125q0.203125 0.4375 0.765625 0.765625q0.578125 0.328125 1.546875 0.328125l0.765625 0l0 0.625l-12.015625 0l0 -0.625l0.765625 0q1.0 0 1.609375 -0.359375q0.4375 -0.234375 0.6875 -0.8125q0.1875 -0.40625 0.1875 -2.125l0 -17.703125l-1.65625 0q-2.3125 0 -3.375 0.984375q-1.46875 1.359375 -1.859375 3.90625l-0.640625 0l0 -6.21875l20.609375 0zm6.6987762 6.65625q2.0625 0 3.84375 1.078125q1.78125 1.0625 2.703125 3.03125q0.921875 1.953125 0.921875 4.28125q0 3.375 -1.703125 5.640625q-2.078125 2.734375 -5.703125 2.734375q-3.578125 0 -5.515625 -2.5q-1.921875 -2.5 -1.921875 -5.796875q0 -3.40625 1.96875 -5.9375q1.96875 -2.53125 5.40625 -2.53125zm0.078125 1.203125q-0.875 0 -1.5 0.65625q-0.609375 0.640625 -0.8125 2.5625q-0.1875 1.921875 -0.1875 5.34375q0 1.8125 0.25 3.390625q0.1875 1.1875 0.796875 1.828125q0.609375 0.625 1.375 0.625q0.765625 0 1.28125 -0.421875q0.65625 -0.578125 0.875 -1.609375q0.34375 -1.609375 0.34375 -6.5q0 -2.875 -0.328125 -3.953125q-0.328125 -1.078125 -0.953125 -1.5625q-0.4375 -0.359375 -1.140625 -0.359375zm23.1875 6.609375l-8.671875 0q0.15625 3.15625 1.671875 4.984375q1.171875 1.40625 2.8125 1.40625q1.015625 0 1.84375 -0.5625q0.828125 -0.578125 1.78125 -2.046875l0.5625 0.375q-1.28125 2.625 -2.84375 3.71875q-1.546875 1.078125 -3.59375 1.078125q-3.515625 0 -5.328125 -2.703125q-1.453125 -2.1875 -1.453125 -5.421875q0 -3.953125 2.140625 -6.296875q2.140625 -2.34375 5.015625 -2.34375q2.390625 0 4.15625 1.96875q1.78125 1.96875 1.90625 5.84375zm-4.15625 -1.125q0 -2.734375 -0.296875 -3.734375q-0.296875 -1.015625 -0.921875 -1.546875q-0.359375 -0.3125 -0.953125 -0.3125q-0.875 0 -1.4375 0.875q-1.0 1.5 -1.0 4.125l0 0.59375l4.609375 0zm37.546158 -13.859375l0 8.09375l-0.625 0q-1.125 -3.328125 -3.40625 -5.046875q-2.265625 -1.734375 -4.953125 -1.734375q-2.5625 0 -4.28125 1.453125q-1.703125 1.453125 -2.421875 4.046875q-0.703125 2.578125 -0.703125 5.296875q0 3.296875 0.765625 5.796875q0.78125 2.484375 2.515625 3.65625q1.75 1.15625 4.125 1.15625q0.828125 0 1.703125 -0.171875q0.875 -0.171875 1.78125 -0.515625l0 -4.765625q0 -1.359375 -0.1875 -1.75q-0.1875 -0.40625 -0.765625 -0.71875q-0.578125 -0.328125 -1.40625 -0.328125l-0.59375 0l0 -0.625l11.14064 0l0 0.625q-1.265625 0.078125 -1.765625 0.34375q-0.5 0.265625 -0.76564026 0.875q-0.15625 0.3125 -0.15625 1.578125l0 4.765625q-2.203125 0.984375 -4.578125 1.484375q-2.375 0.5 -4.921875 0.5q-3.265625 0 -5.4375 -0.890625q-2.15625 -0.890625 -3.8125 -2.328125q-1.640625 -1.453125 -2.5625 -3.265625q-1.1875 -2.34375 -1.1875 -5.234375q0 -5.171875 3.640625 -8.734375q3.640625 -3.578125 9.15625 -3.578125q1.703125 0 3.078125 0.265625q0.734375 0.140625 2.40625 0.78125q1.671875 0.625 1.96875 0.625q0.484375 0 0.890625 -0.34375q0.40625 -0.34375 0.734375 -1.3125l0.625 0zm12.956741 21.140625q-2.90625 2.546875 -5.203125 2.546875q-1.359375 0 -2.25 -0.890625q-0.890625 -0.890625 -0.890625 -2.21875q0 -1.8125 1.546875 -3.25q1.5625 -1.453125 6.796875 -3.859375l0 -1.59375q0 -1.796875 -0.203125 -2.25q-0.1875 -0.46875 -0.734375 -0.8125q-0.546875 -0.359375 -1.21875 -0.359375q-1.09375 0 -1.8125 0.5q-0.4375 0.296875 -0.4375 0.703125q0 0.359375 0.46875 0.890625q0.640625 0.71875 0.640625 1.390625q0 0.84375 -0.625 1.421875q-0.609375 0.578125 -1.609375 0.578125q-1.0625 0 -1.78125 -0.640625q-0.71875 -0.640625 -0.71875 -1.5q0 -1.21875 0.96875 -2.328125q0.96875 -1.109375 2.6875 -1.703125q1.734375 -0.59375 3.59375 -0.59375q2.25 0 3.5625 0.953125q1.3125 0.953125 1.703125 2.078125q0.234375 0.703125 0.234375 3.265625l0 6.140625q0 1.078125 0.078125 1.359375q0.09375 0.28125 0.25 0.421875q0.171875 0.125 0.390625 0.125q0.4375 0 0.90625 -0.625l0.5 0.40625q-0.84375 1.265625 -1.75 1.828125q-0.90625 0.5625 -2.046875 0.5625q-1.359375 0 -2.125 -0.625q-0.765625 -0.640625 -0.921875 -1.921875zm0 -1.25l0 -5.28125q-2.046875 1.1875 -3.046875 2.5625q-0.671875 0.921875 -0.671875 1.84375q0 0.78125 0.5625 1.375q0.421875 0.453125 1.1875 0.453125q0.84375 0 1.96875 -0.953125zm15.15625 -12.25l0 2.09375q1.296875 -1.421875 2.40625 -1.984375q1.109375 -0.578125 2.4375 -0.578125q1.515625 0 2.546875 0.71875q1.03125 0.703125 1.59375 2.15625q1.359375 -1.515625 2.59375 -2.1875q1.25 -0.6875 2.59375 -0.6875q1.65625 0 2.625 0.75q0.96875 0.75 1.34375 1.921875q0.390625 1.15625 0.390625 3.6875l0 6.484375q0 1.828125 0.328125 2.265625q0.328125 0.4375 1.375 0.578125l0 0.609375l-8.171875 0l0 -0.609375q0.96875 -0.078125 1.421875 -0.75q0.3125 -0.453125 0.3125 -2.09375l0 -6.796875q0 -2.125 -0.171875 -2.6875q-0.171875 -0.578125 -0.546875 -0.859375q-0.359375 -0.28125 -0.84375 -0.28125q-0.734375 0 -1.484375 0.53125q-0.734375 0.53125 -1.5 1.59375l0 8.5q0 1.703125 0.296875 2.15625q0.390625 0.625 1.484375 0.6875l0 0.609375l-8.1875 0l0 -0.609375q0.65625 -0.03125 1.03125 -0.328125q0.390625 -0.296875 0.515625 -0.703125q0.125 -0.421875 0.125 -1.8125l0 -6.796875q0 -2.15625 -0.171875 -2.6875q-0.171875 -0.546875 -0.5625 -0.84375q-0.390625 -0.3125 -0.859375 -0.3125q-0.671875 0 -1.234375 0.359375q-0.796875 0.515625 -1.6875 1.78125l0 8.5q0 1.671875 0.328125 2.21875q0.328125 0.53125 1.375 0.625l0 0.609375l-8.15625 0l0 -0.609375q1.0 -0.09375 1.421875 -0.640625q0.296875 -0.375 0.296875 -2.203125l0 -8.9375q0 -1.796875 -0.34375 -2.234375q-0.328125 -0.4375 -1.375 -0.578125l0 -0.625l6.453125 0zm35.697052 7.34375l-8.671875 0q0.15625 3.15625 1.671875 4.984375q1.171875 1.40625 2.8125 1.40625q1.015625 0 1.84375 -0.5625q0.828125 -0.578125 1.78125 -2.046875l0.5625 0.375q-1.28125 2.625 -2.84375 3.71875q-1.546875 1.078125 -3.59375 1.078125q-3.515625 0 -5.328125 -2.703125q-1.453125 -2.1875 -1.453125 -5.421875q0 -3.953125 2.140625 -6.296875q2.140625 -2.34375 5.015625 -2.34375q2.390625 0 4.15625 1.96875q1.78125 1.96875 1.90625 5.84375zm-4.15625 -1.125q0 -2.734375 -0.296875 -3.734375q-0.296875 -1.015625 -0.921875 -1.546875q-0.359375 -0.3125 -0.953125 -0.3125q-0.875 0 -1.4375 0.875q-1.0 1.5 -1.0 4.125l0 0.59375l4.609375 0zm34.873016 -13.34375l0 6.21875l-0.609375 0q-0.53125 -2.15625 -1.203125 -3.09375q-0.65625 -0.9375 -1.8125 -1.5q-0.640625 -0.296875 -2.25 -0.296875l-1.703125 0l0 17.703125q0 1.75 0.1875 2.203125q0.203125 0.4375 0.765625 0.765625q0.578125 0.328125 1.546875 0.328125l0.765625 0l0 0.625l-12.015625 0l0 -0.625l0.765625 0q1.0 0 1.609375 -0.359375q0.4375 -0.234375 0.6875 -0.8125q0.1875 -0.40625 0.1875 -2.125l0 -17.703125l-1.65625 0q-2.3125 0 -3.375 0.984375q-1.46875 1.359375 -1.859375 3.90625l-0.640625 0l0 -6.21875l20.609375 0zm6.4175415 7.125l0 3.59375q1.578125 -2.453125 2.75 -3.25q1.1875 -0.8125 2.296875 -0.8125q0.9375 0 1.5 0.59375q0.578125 0.578125 0.578125 1.640625q0 1.140625 -0.5625 1.765625q-0.546875 0.625 -1.3125 0.625q-0.90625 0 -1.5625 -0.578125q-0.65625 -0.578125 -0.78125 -0.640625q-0.171875 -0.109375 -0.390625 -0.109375q-0.484375 0 -0.921875 0.375q-0.703125 0.578125 -1.046875 1.640625q-0.546875 1.640625 -0.546875 3.625l0 3.640625l0.015625 0.9375q0 0.96875 0.125 1.234375q0.203125 0.46875 0.59375 0.6875q0.390625 0.203125 1.34375 0.25l0 0.609375l-8.546875 0l0 -0.609375q1.03125 -0.078125 1.390625 -0.5625q0.375 -0.484375 0.375 -2.546875l0 -8.75q0 -1.359375 -0.140625 -1.734375q-0.171875 -0.46875 -0.5 -0.6875q-0.3125 -0.21875 -1.125 -0.3125l0 -0.625l6.46875 0zm21.583923 7.34375l-8.671875 0q0.15625 3.15625 1.671875 4.984375q1.171875 1.40625 2.8125 1.40625q1.015625 0 1.84375 -0.5625q0.828125 -0.578125 1.78125 -2.046875l0.5625 0.375q-1.28125 2.625 -2.84375 3.71875q-1.546875 1.078125 -3.59375 1.078125q-3.515625 0 -5.328125 -2.703125q-1.453125 -2.1875 -1.453125 -5.421875q0 -3.953125 2.140625 -6.296875q2.140625 -2.34375 5.015625 -2.34375q2.390625 0 4.15625 1.96875q1.78125 1.96875 1.90625 5.84375zm-4.15625 -1.125q0 -2.734375 -0.296875 -3.734375q-0.296875 -1.015625 -0.921875 -1.546875q-0.359375 -0.3125 -0.953125 -0.3125q-0.875 0 -1.4375 0.875q-1.0 1.5 -1.0 4.125l0 0.59375l4.609375 0zm19.53833 1.125l-8.671875 0q0.15625 3.15625 1.671875 4.984375q1.171875 1.40625 2.8125 1.40625q1.015625 0 1.84375 -0.5625q0.828125 -0.578125 1.78125 -2.046875l0.5625 0.375q-1.28125 2.625 -2.84375 3.71875q-1.546875 1.078125 -3.59375 1.078125q-3.515625 0 -5.328125 -2.703125q-1.453125 -2.1875 -1.453125 -5.421875q0 -3.953125 2.140625 -6.296875q2.140625 -2.34375 5.015625 -2.34375q2.390625 0 4.15625 1.96875q1.78125 1.96875 1.90625 5.84375zm-4.15625 -1.125q0 -2.734375 -0.296875 -3.734375q-0.296875 -1.015625 -0.921875 -1.546875q-0.359375 -0.3125 -0.953125 -0.3125q-0.875 0 -1.4375 0.875q-1.0 1.5 -1.0 4.125l0 0.59375l4.609375 0z" fill-rule="nonzero"/><path fill="#eaf0f8" fill-opacity="0.7490196" d="m38.4 69.12l883.19995 0l0 99.840004l-883.19995 0z" fill-rule="evenodd"/><path stroke="#d0dff0" stroke-width="1.0" stroke-linejoin="round" stroke-linecap="butt" d="m38.4 69.12l883.19995 0l0 99.840004l-883.19995 0z" fill-rule="evenodd"/><path fill="#eaf0f8" fill-opacity="0.7490196" d="m38.4 222.82666l883.2126 0l0 105.60629l-883.2126 0z" fill-rule="evenodd"/><path stroke="#d0dff0" stroke-width="1.0" stroke-linejoin="round" stroke-linecap="butt" d="m38.4 222.82666l883.2126 0l0 105.60629l-883.2126 0z" fill-rule="evenodd"/><path fill="#eaf0f8" fill-opacity="0.7490196" d="m38.39895 347.62714l883.21265 0l0 130.67715l-883.21265 0z" fill-rule="evenodd"/><path stroke="#d0dff0" stroke-width="1.0" stroke-linejoin="round" stroke-linecap="butt" d="m38.39895 347.62714l883.21265 0l0 130.67715l-883.21265 0z" fill-rule="evenodd"/><path fill="#8ba8c8" d="m465.92 74.88l1.5359497 0l0 84.48l-1.5359497 0z" fill-rule="evenodd"/><path stroke="#8ba8c8" stroke-width="1.3333333333333333" stroke-linejoin="round" stroke-linecap="butt" d="m465.92 74.88l1.5359497 0l0 84.48l-1.5359497 0z" fill-rule="evenodd"/><path fill="#8ba8c8" d="m494.08 74.88l1.5359802 0l0 84.48l-1.5359802 0z" fill-rule="evenodd"/><path stroke="#8ba8c8" stroke-width="1.3333333333333333" stroke-linejoin="round" stroke-linecap="butt" d="m494.08 74.88l1.5359802 0l0 84.48l-1.5359802 0z" fill-rule="evenodd"/><path fill="#8ba8c8" d="m437.76 103.04l84.47998 0l0 1.5359573l-84.47998 0z" fill-rule="evenodd"/><path stroke="#8ba8c8" stroke-width="1.3333333333333333" stroke-linejoin="round" stroke-linecap="butt" d="m437.76 103.04l84.47998 0l0 1.5359573l-84.47998 0z" fill-rule="evenodd"/><path fill="#8ba8c8" d="m437.76 131.2l84.47998 0l0 1.535965l-84.47998 0z" fill-rule="evenodd"/><path stroke="#8ba8c8" stroke-width="1.3333333333333333" stroke-linejoin="round" stroke-linecap="butt" d="m437.76 131.2l84.47998 0l0 1.535965l-84.47998 0z" fill-rule="evenodd"/><path fill="#ffffff" fill-opacity="0.0" d="m437.76 74.88l84.47998 0l0 84.48l-84.47998 0z" fill-rule="evenodd"/><path stroke="#12213a" stroke-width="1.5984251968503937" stroke-linejoin="round" stroke-linecap="butt" d="m437.76 74.88l84.47998 0l0 84.48l-84.47998 0z" fill-rule="evenodd"/><path fill="#000000" fill-opacity="0.0" d="m480.0126 162.88336l-336.97638 69.543304" fill-rule="evenodd"/><path stroke="#a0b8d0" stroke-width="1.1994750656167978" stroke-linejoin="round" stroke-linecap="butt" d="m480.0126 162.88336l-336.97638 69.543304" fill-rule="evenodd"/><path fill="#000000" fill-opacity="0.0" d="m107.53354 192.0476l76.7874 0l0 17.291336l-76.7874 0z" fill-rule="evenodd"/><path fill="#7a9dc0" d="m126.20221 197.31827l-0.640625 2.203125l1.28125 0l-0.140625 0.515625l-1.265625 0l-1.40625 4.796875q-0.21875 0.78125 -0.21875 1.0q0 0.140625 0.0625 0.21875q0.0625 0.078125 0.15625 0.078125q0.203125 0 0.53125 -0.296875q0.203125 -0.15625 0.875 -1.0l0.265625 0.203125q-0.75 1.09375 -1.40625 1.546875q-0.46875 0.296875 -0.921875 0.296875q-0.359375 0 -0.59375 -0.21875q-0.21875 -0.21875 -0.21875 -0.578125q0 -0.4375 0.25 -1.328125l1.359375 -4.71875l-1.21875 0l0.078125 -0.3125q0.890625 -0.25 1.484375 -0.734375q0.59375 -0.484375 1.328125 -1.671875l0.359375 0zm8.00264 4.5625q0 1.21875 -0.65625 2.421875q-0.640625 1.1875 -1.796875 1.890625q-1.15625 0.6875 -2.234375 0.6875q-1.125 0 -1.828125 -0.703125q-0.703125 -0.71875 -0.703125 -1.84375q0 -1.1875 0.6875 -2.390625q0.6875 -1.21875 1.84375 -1.90625q1.15625 -0.703125 2.21875 -0.703125q1.078125 0 1.765625 0.71875q0.703125 0.703125 0.703125 1.828125zm-1.34375 -0.5625q0 -0.75 -0.375 -1.15625q-0.375 -0.40625 -0.953125 -0.40625q-1.203125 0 -2.203125 1.71875q-1.0 1.703125 -1.0 3.390625q0 0.78125 0.390625 1.203125q0.390625 0.40625 0.984375 0.40625q1.140625 0 2.140625 -1.703125q1.015625 -1.703125 1.015625 -3.453125zm5.65625 -1.984375l-0.5625 1.875q0.890625 -1.046875 1.578125 -1.453125q0.703125 -0.421875 1.421875 -0.421875q0.71875 0 1.234375 0.578125q0.515625 0.5625 0.515625 1.484375q0 1.796875 -1.453125 3.640625q-1.453125 1.84375 -3.390625 1.84375q-0.40625 0 -0.71875 -0.09375q-0.3125 -0.078125 -0.703125 -0.3125l-0.59375 2.109375q-0.1875 0.609375 -0.1875 0.796875q0 0.1875 0.09375 0.3125q0.09375 0.125 0.296875 0.1875q0.21875 0.078125 0.84375 0.078125l-0.0625 0.296875l-3.84375 0l0.09375 -0.296875q0.75 -0.03125 1.015625 -0.265625q0.265625 -0.234375 0.5625 -1.265625l2.046875 -7.125q0.1875 -0.671875 0.1875 -0.828125q0 -0.21875 -0.125 -0.34375q-0.125 -0.125 -0.390625 -0.125q-0.234375 0 -0.65625 0.0625l0 -0.328125l2.796875 -0.40625zm-1.890625 6.5q0.5 0.609375 1.34375 0.609375q0.4375 0 0.875 -0.234375q0.4375 -0.234375 0.84375 -0.703125q0.421875 -0.46875 0.75 -1.0625q0.34375 -0.609375 0.609375 -1.421875q0.265625 -0.828125 0.265625 -1.640625q0 -0.65625 -0.296875 -1.0q-0.296875 -0.34375 -0.703125 -0.34375q-0.875 0 -1.734375 1.015625q-0.859375 1.0 -1.25 2.359375l-0.703125 2.421875zm11.515625 -3.296875l-0.328125 1.078125l-4.21875 0l0.328125 -1.078125l4.21875 0zm5.5154114 -7.40625l-2.78125 9.671875q-0.203125 0.734375 -0.203125 0.890625q0 0.125 0.078125 0.203125q0.078125 0.078125 0.1875 0.078125q0.15625 0 0.328125 -0.140625q0.4375 -0.328125 0.890625 -1.03125l0.25 0.25q-0.78125 1.09375 -1.421875 1.53125q-0.484375 0.296875 -0.921875 0.296875q-0.296875 0 -0.515625 -0.203125q-0.203125 -0.21875 -0.203125 -0.484375q0 -0.296875 0.265625 -1.203125l2.203125 -7.640625q0.265625 -0.921875 0.265625 -1.0625q0 -0.203125 -0.15625 -0.328125q-0.15625 -0.125 -0.484375 -0.125q-0.1875 0 -0.5625 0.0625l0 -0.296875l2.78125 -0.46875zm1.6588898 8.5q-0.0625 0.40625 -0.0625 0.671875q0 0.71875 0.515625 1.234375q0.515625 0.5 1.25 0.5q0.578125 0 1.109375 -0.234375q0.546875 -0.234375 1.625 -1.0625l0.171875 0.234375q-1.9375 1.90625 -3.6875 1.90625q-1.1875 0 -1.796875 -0.734375q-0.59375 -0.75 -0.59375 -1.65625q0 -1.21875 0.75 -2.484375q0.75 -1.265625 1.875 -1.96875q1.140625 -0.703125 2.328125 -0.703125q0.859375 0 1.28125 0.359375q0.421875 0.34375 0.421875 0.8125q0 0.6875 -0.546875 1.296875q-0.703125 0.8125 -2.078125 1.296875q-0.90625 0.34375 -2.5625 0.53125zm0.0625 -0.40625q1.203125 -0.140625 1.953125 -0.46875q1.0 -0.453125 1.5 -1.0625q0.5 -0.625 0.5 -1.1875q0 -0.34375 -0.21875 -0.546875q-0.203125 -0.21875 -0.609375 -0.21875q-0.828125 0 -1.765625 0.890625q-0.921875 0.875 -1.359375 2.59375zm10.283463 -3.703125l-0.140625 0.546875l-1.1875 0l-0.90625 3.546875q-0.59375 2.359375 -1.1875 3.640625q-0.859375 1.8125 -1.84375 2.5q-0.75 0.53125 -1.5 0.53125q-0.484375 0 -0.828125 -0.296875q-0.25 -0.203125 -0.25 -0.53125q0 -0.25 0.21875 -0.453125q0.203125 -0.1875 0.5 -0.1875q0.21875 0 0.375 0.140625q0.140625 0.140625 0.140625 0.328125q0 0.171875 -0.171875 0.328125q-0.125 0.109375 -0.125 0.171875q0 0.0625 0.0625 0.109375q0.0625 0.0625 0.21875 0.0625q0.359375 0 0.75 -0.21875q0.375 -0.21875 0.6875 -0.65625q0.296875 -0.4375 0.5625 -1.265625q0.109375 -0.34375 0.609375 -2.25l1.40625 -5.5l-1.40625 0l0.109375 -0.546875q0.671875 0 0.9375 -0.09375q0.28125 -0.09375 0.5 -0.34375q0.21875 -0.265625 0.578125 -1.0q0.484375 -0.96875 0.921875 -1.515625q0.609375 -0.71875 1.265625 -1.078125q0.65625 -0.359375 1.25 -0.359375q0.609375 0 0.984375 0.3125q0.375 0.3125 0.375 0.671875q0 0.296875 -0.1875 0.5q-0.1875 0.1875 -0.46875 0.1875q-0.25 0 -0.421875 -0.140625q-0.15625 -0.15625 -0.15625 -0.359375q0 -0.140625 0.109375 -0.328125q0.109375 -0.1875 0.109375 -0.25q0 -0.109375 -0.078125 -0.171875q-0.109375 -0.078125 -0.3125 -0.078125q-0.5 0 -0.90625 0.328125q-0.546875 0.421875 -0.984375 1.34375q-0.21875 0.484375 -0.796875 2.375l1.1875 0zm4.018265 -2.203125l-0.640625 2.203125l1.28125 0l-0.140625 0.515625l-1.265625 0l-1.40625 4.796875q-0.21875 0.78125 -0.21875 1.0q0 0.140625 0.0625 0.21875q0.0625 0.078125 0.15625 0.078125q0.203125 0 0.53125 -0.296875q0.203125 -0.15625 0.875 -1.0l0.265625 0.203125q-0.75 1.09375 -1.40625 1.546875q-0.46875 0.296875 -0.921875 0.296875q-0.359375 0 -0.59375 -0.21875q-0.21875 -0.21875 -0.21875 -0.578125q0 -0.4375 0.25 -1.328125l1.359375 -4.71875l-1.21875 0l0.078125 -0.3125q0.890625 -0.25 1.484375 -0.734375q0.59375 -0.484375 1.328125 -1.671875l0.359375 0z" fill-rule="nonzero"/><path fill="#8ba8c8" d="m128.96 232.42667l1.5433044 0l0 84.47244l-1.5433044 0z" fill-rule="evenodd"/><path stroke="#8ba8c8" stroke-width="1.3333333333333333" stroke-linejoin="round" stroke-linecap="butt" d="m128.96 232.42667l1.5433044 0l0 84.47244l-1.5433044 0z" fill-rule="evenodd"/><path fill="#8ba8c8" d="m157.12 232.42667l1.5433044 0l0 84.47244l-1.5433044 0z" fill-rule="evenodd"/><path stroke="#8ba8c8" stroke-width="1.3333333333333333" stroke-linejoin="round" stroke-linecap="butt" d="m157.12 232.42667l1.5433044 0l0 84.47244l-1.5433044 0z" fill-rule="evenodd"/><path fill="#8ba8c8" d="m100.8 260.58667l84.47244 0l0 1.5433044l-84.47244 0z" fill-rule="evenodd"/><path stroke="#8ba8c8" stroke-width="1.3333333333333333" stroke-linejoin="round" stroke-linecap="butt" d="m100.8 260.58667l84.47244 0l0 1.5433044l-84.47244 0z" fill-rule="evenodd"/><path fill="#8ba8c8" d="m100.8 288.74667l84.47244 0l0 1.5433044l-84.47244 0z" fill-rule="evenodd"/><path stroke="#8ba8c8" stroke-width="1.3333333333333333" stroke-linejoin="round" stroke-linecap="butt" d="m100.8 288.74667l84.47244 0l0 1.5433044l-84.47244 0z" fill-rule="evenodd"/><path fill="#ffffff" fill-opacity="0.0" d="m100.8 232.42667l84.47244 0l0 84.47244l-84.47244 0z" fill-rule="evenodd"/><path stroke="#12213a" stroke-width="1.5984251968503937" stroke-linejoin="round" stroke-linecap="butt" d="m100.8 232.42667l84.47244 0l0 84.47244l-84.47244 0z" fill-rule="evenodd"/><path fill="#000000" fill-opacity="0.0" d="m106.99517 238.62184l15.779526 15.779526" fill-rule="evenodd"/><path stroke="#e05a2b" stroke-width="2.931758530183727" stroke-linejoin="round" stroke-linecap="butt" d="m106.99517 238.62184l15.779526 15.779526" fill-rule="evenodd"/><path fill="#000000" fill-opacity="0.0" d="m122.76483 238.62184l-15.779533 15.779526" fill-rule="evenodd"/><path stroke="#e05a2b" stroke-width="2.931758530183727" stroke-linejoin="round" stroke-linecap="butt" d="m122.76483 238.62184l-15.779533 15.779526" fill-rule="evenodd"/><path fill="#000000" fill-opacity="0.0" d="m479.99622 162.88336l0 69.543304" fill-rule="evenodd"/><path stroke="#a0b8d0" stroke-width="1.1994750656167978" stroke-linejoin="round" stroke-linecap="butt" d="m479.99622 162.88336l0 69.543304" fill-rule="evenodd"/><path fill="#000000" fill-opacity="0.0" d="m469.59103 189.33167l76.787384 0l0 17.291336l-76.787384 0z" fill-rule="evenodd"/><path fill="#7a9dc0" d="m493.61414 202.2117q-0.84375 1.015625 -1.71875 1.484375q-0.859375 0.46875 -1.8125 0.46875q-1.15625 0 -1.8125 -0.640625q-0.640625 -0.65625 -0.640625 -1.75q0 -1.25 0.6875 -2.453125q0.703125 -1.203125 1.875 -1.953125q1.1875 -0.75 2.3125 -0.75q0.890625 0 1.328125 0.375q0.4375 0.359375 0.4375 0.90625q0 0.5 -0.3125 0.859375q-0.21875 0.28125 -0.5625 0.28125q-0.25 0 -0.421875 -0.15625q-0.15625 -0.171875 -0.15625 -0.421875q0 -0.15625 0.0625 -0.28125q0.0625 -0.125 0.25 -0.3125q0.1875 -0.1875 0.21875 -0.265625q0.046875 -0.078125 0.046875 -0.171875q0 -0.171875 -0.15625 -0.28125q-0.234375 -0.171875 -0.65625 -0.171875q-0.796875 0 -1.578125 0.5625q-0.78125 0.5625 -1.34375 1.59375q-0.65625 1.25 -0.65625 2.515625q0 0.828125 0.46875 1.3125q0.46875 0.484375 1.28125 0.484375q0.625 0 1.234375 -0.3125q0.625 -0.3125 1.390625 -1.140625l0.234375 0.21875zm2.9396973 -1.296875q-0.0625 0.40625 -0.0625 0.671875q0 0.71875 0.515625 1.234375q0.515625 0.5 1.25 0.5q0.578125 0 1.109375 -0.234375q0.546875 -0.234375 1.625 -1.0625l0.171875 0.234375q-1.9375 1.90625 -3.6875 1.90625q-1.1875 0 -1.796875 -0.734375q-0.59375 -0.75 -0.59375 -1.65625q0 -1.21875 0.75 -2.484375q0.75 -1.265625 1.875 -1.96875q1.140625 -0.703125 2.328125 -0.703125q0.859375 0 1.28125 0.359375q0.421875 0.34375 0.421875 0.8125q0 0.6875 -0.546875 1.296875q-0.703125 0.8125 -2.078125 1.296875q-0.90625 0.34375 -2.5625 0.53125zm0.0625 -0.40625q1.203125 -0.140625 1.953125 -0.46875q1.0 -0.453125 1.5 -1.0625q0.5 -0.625 0.5 -1.1875q0 -0.34375 -0.21875 -0.546875q-0.203125 -0.21875 -0.609375 -0.21875q-0.828125 0 -1.765625 0.890625q-0.921875 0.875 -1.359375 2.59375zm9.017853 -3.890625l-1.078125 3.703125q1.515625 -2.265625 2.328125 -2.984375q0.8125 -0.71875 1.5625 -0.71875q0.40625 0 0.671875 0.265625q0.265625 0.265625 0.265625 0.703125q0 0.484375 -0.234375 1.296875l-1.0 3.421875q-0.171875 0.59375 -0.171875 0.734375q0 0.109375 0.0625 0.1875q0.078125 0.078125 0.140625 0.078125q0.09375 0 0.234375 -0.109375q0.4375 -0.34375 0.953125 -1.046875l0.25 0.15625q-0.765625 1.09375 -1.4375 1.546875q-0.46875 0.3125 -0.84375 0.3125q-0.296875 0 -0.484375 -0.1875q-0.171875 -0.171875 -0.171875 -0.484375q0 -0.390625 0.28125 -1.34375l0.9375 -3.265625q0.171875 -0.609375 0.171875 -0.953125q0 -0.15625 -0.109375 -0.25q-0.09375 -0.109375 -0.25 -0.109375q-0.234375 0 -0.546875 0.1875q-0.59375 0.375 -1.25 1.21875q-0.65625 0.828125 -1.375 2.140625q-0.375 0.703125 -0.640625 1.515625l-0.40625 1.34375l-1.21875 0l1.484375 -5.09375q0.265625 -0.921875 0.265625 -1.109375q0 -0.171875 -0.15625 -0.296875q-0.140625 -0.140625 -0.34375 -0.140625q-0.09375 0 -0.34375 0.03125l-0.3125 0.046875l-0.046875 -0.296875l2.8125 -0.5zm8.9843445 -2.015625l-0.640625 2.203125l1.28125 0l-0.140625 0.515625l-1.265625 0l-1.40625 4.796875q-0.21875 0.78125 -0.21875 1.0q0 0.140625 0.0625 0.21875q0.0625 0.078125 0.15625 0.078125q0.203125 0 0.53125 -0.296875q0.203125 -0.15625 0.875 -1.0l0.265625 0.203125q-0.75 1.09375 -1.40625 1.546875q-0.46875 0.296875 -0.9218445 0.296875q-0.359375 0 -0.59375 -0.21875q-0.21875 -0.21875 -0.21875 -0.578125q0 -0.4375 0.25 -1.328125l1.3593445 -4.71875l-1.2187195 0l0.078125 -0.3125q0.8905945 -0.25 1.4843445 -0.734375q0.59375 -0.484375 1.328125 -1.671875l0.359375 0zm2.2839355 6.3125q-0.0625 0.40625 -0.0625 0.671875q0 0.71875 0.515625 1.234375q0.515625 0.5 1.25 0.5q0.578125 0 1.109375 -0.234375q0.546875 -0.234375 1.625 -1.0625l0.171875 0.234375q-1.9375 1.90625 -3.6875 1.90625q-1.1875 0 -1.796875 -0.734375q-0.59375 -0.75 -0.59375 -1.65625q0 -1.21875 0.75 -2.484375q0.75 -1.265625 1.875 -1.96875q1.140625 -0.703125 2.328125 -0.703125q0.859375 0 1.28125 0.359375q0.421875 0.34375 0.421875 0.8125q0 0.6875 -0.546875 1.296875q-0.703125 0.8125 -2.078125 1.296875q-0.90625 0.34375 -2.5625 0.53125zm0.0625 -0.40625q1.203125 -0.140625 1.953125 -0.46875q1.0 -0.453125 1.5 -1.0625q0.5 -0.625 0.5 -1.1875q0 -0.34375 -0.21875 -0.546875q-0.203125 -0.21875 -0.609375 -0.21875q-0.828125 0 -1.765625 0.890625q-0.921875 0.875 -1.359375 2.59375zm6.2209473 -3.4375l2.796875 -0.453125l-1.171875 3.953125q1.421875 -2.4375 2.59375 -3.40625q0.65625 -0.546875 1.078125 -0.546875q0.265625 0 0.421875 0.15625q0.15625 0.15625 0.15625 0.453125q0 0.546875 -0.28125 1.03125q-0.203125 0.375 -0.5625 0.375q-0.1875 0 -0.328125 -0.125q-0.125 -0.125 -0.15625 -0.375q-0.015625 -0.15625 -0.078125 -0.203125q-0.0625 -0.0625 -0.15625 -0.0625q-0.140625 0 -0.265625 0.0625q-0.203125 0.109375 -0.640625 0.625q-0.671875 0.796875 -1.453125 2.078125q-0.34375 0.53125 -0.59375 1.203125q-0.34375 0.921875 -0.390625 1.109375l-0.265625 1.03125l-1.234375 0l1.5 -5.046875q0.265625 -0.875 0.265625 -1.25q0 -0.15625 -0.125 -0.25q-0.15625 -0.125 -0.4375 -0.125q-0.171875 0 -0.625 0.0625l-0.046875 -0.296875z" fill-rule="nonzero"/><path fill="#8ba8c8" d="m465.92 232.42667l1.5433044 0l0 84.47244l-1.5433044 0z" fill-rule="evenodd"/><path stroke="#8ba8c8" stroke-width="1.3333333333333333" stroke-linejoin="round" stroke-linecap="butt" d="m465.92 232.42667l1.5433044 0l0 84.47244l-1.5433044 0z" fill-rule="evenodd"/><path fill="#8ba8c8" d="m494.08 232.42667l1.543335 0l0 84.47244l-1.543335 0z" fill-rule="evenodd"/><path stroke="#8ba8c8" stroke-width="1.3333333333333333" stroke-linejoin="round" stroke-linecap="butt" d="m494.08 232.42667l1.543335 0l0 84.47244l-1.543335 0z" fill-rule="evenodd"/><path fill="#8ba8c8" d="m437.76 260.58667l84.47241 0l0 1.5433044l-84.47241 0z" fill-rule="evenodd"/><path stroke="#8ba8c8" stroke-width="1.3333333333333333" stroke-linejoin="round" stroke-linecap="butt" d="m437.76 260.58667l84.47241 0l0 1.5433044l-84.47241 0z" fill-rule="evenodd"/><path fill="#8ba8c8" d="m437.76 288.74667l84.47241 0l0 1.5433044l-84.47241 0z" fill-rule="evenodd"/><path stroke="#8ba8c8" stroke-width="1.3333333333333333" stroke-linejoin="round" stroke-linecap="butt" d="m437.76 288.74667l84.47241 0l0 1.5433044l-84.47241 0z" fill-rule="evenodd"/><path fill="#ffffff" fill-opacity="0.0" d="m437.76 232.42667l84.47241 0l0 84.47244l-84.47241 0z" fill-rule="evenodd"/><path stroke="#12213a" stroke-width="1.5984251968503937" stroke-linejoin="round" stroke-linecap="butt" d="m437.76 232.42667l84.47241 0l0 84.47244l-84.47241 0z" fill-rule="evenodd"/><path fill="#000000" fill-opacity="0.0" d="m472.11517 266.78183l15.7795105 15.779541" fill-rule="evenodd"/><path stroke="#e05a2b" stroke-width="2.931758530183727" stroke-linejoin="round" stroke-linecap="butt" d="m472.11517 266.78183l15.7795105 15.779541" fill-rule="evenodd"/><path fill="#000000" fill-opacity="0.0" d="m487.88483 266.78183l-15.7795105 15.779541" fill-rule="evenodd"/><path stroke="#e05a2b" stroke-width="2.931758530183727" stroke-linejoin="round" stroke-linecap="butt" d="m487.88483 266.78183l-15.7795105 15.779541" fill-rule="evenodd"/><path fill="#000000" fill-opacity="0.0" d="m480.0126 162.88336l335.0236 69.543304" fill-rule="evenodd"/><path stroke="#a0b8d0" stroke-width="1.1994750656167978" stroke-linejoin="round" stroke-linecap="butt" d="m480.0126 162.88336l335.0236 69.543304" fill-rule="evenodd"/><path fill="#000000" fill-opacity="0.0" d="m775.6735 192.04892l76.787415 0l0 17.291351l-76.787415 0z" fill-rule="evenodd"/><path fill="#7a9dc0" d="m788.7833 197.3196l-0.640625 2.203125l1.28125 0l-0.140625 0.515625l-1.265625 0l-1.40625 4.796875q-0.21875 0.78125 -0.21875 1.0q0 0.140625 0.0625 0.21875q0.0625 0.078125 0.15625 0.078125q0.203125 0 0.53125 -0.296875q0.203125 -0.15625 0.875 -1.0l0.265625 0.203125q-0.75 1.09375 -1.40625 1.546875q-0.46875 0.296875 -0.921875 0.296875q-0.359375 0 -0.59375 -0.21875q-0.21875 -0.21875 -0.21875 -0.578125q0 -0.4375 0.25 -1.328125l1.359375 -4.71875l-1.21875 0l0.078125 -0.3125q0.890625 -0.25 1.484375 -0.734375q0.59375 -0.484375 1.328125 -1.671875l0.359375 0zm8.0026245 4.5625q0 1.21875 -0.65625 2.421875q-0.640625 1.1875 -1.796875 1.890625q-1.15625 0.6875 -2.234375 0.6875q-1.125 0 -1.828125 -0.703125q-0.703125 -0.71875 -0.703125 -1.84375q0 -1.1875 0.6875 -2.390625q0.6875 -1.21875 1.84375 -1.90625q1.15625 -0.703125 2.21875 -0.703125q1.078125 0 1.765625 0.71875q0.703125 0.703125 0.703125 1.828125zm-1.34375 -0.5625q0 -0.75 -0.375 -1.15625q-0.375 -0.40625 -0.953125 -0.40625q-1.203125 0 -2.203125 1.71875q-1.0 1.703125 -1.0 3.390625q0 0.78125 0.390625 1.203125q0.390625 0.40625 0.984375 0.40625q1.140625 0 2.140625 -1.703125q1.015625 -1.703125 1.015625 -3.453125zm5.65625 -1.984375l-0.5625 1.875q0.890625 -1.046875 1.578125 -1.453125q0.703125 -0.421875 1.421875 -0.421875q0.71875 0 1.234375 0.578125q0.515625 0.5625 0.515625 1.484375q0 1.796875 -1.453125 3.640625q-1.453125 1.84375 -3.390625 1.84375q-0.40625 0 -0.71875 -0.09375q-0.3125 -0.078125 -0.703125 -0.3125l-0.59375 2.109375q-0.1875 0.609375 -0.1875 0.796875q0 0.1875 0.09375 0.3125q0.09375 0.125 0.296875 0.1875q0.21875 0.078125 0.84375 0.078125l-0.0625 0.296875l-3.84375 0l0.09375 -0.296875q0.75 -0.03125 1.015625 -0.265625q0.265625 -0.234375 0.5625 -1.265625l2.046875 -7.125q0.1875 -0.671875 0.1875 -0.828125q0 -0.21875 -0.125 -0.34375q-0.125 -0.125 -0.390625 -0.125q-0.234375 0 -0.65625 0.0625l0 -0.328125l2.796875 -0.40625zm-1.890625 6.5q0.5 0.609375 1.34375 0.609375q0.4375 0 0.875 -0.234375q0.4375 -0.234375 0.84375 -0.703125q0.421875 -0.46875 0.75 -1.0625q0.34375 -0.609375 0.609375 -1.421875q0.265625 -0.828125 0.265625 -1.640625q0 -0.65625 -0.296875 -1.0q-0.296875 -0.34375 -0.703125 -0.34375q-0.875 0 -1.734375 1.015625q-0.859375 1.0 -1.25 2.359375l-0.703125 2.421875zm11.515625 -3.296875l-0.328125 1.078125l-4.21875 0l0.328125 -1.078125l4.21875 0zm1.4373169 -2.75l2.796875 -0.453125l-1.171875 3.953125q1.421875 -2.4375 2.59375 -3.40625q0.65625 -0.546875 1.078125 -0.546875q0.265625 0 0.421875 0.15625q0.15625 0.15625 0.15625 0.453125q0 0.546875 -0.28125 1.03125q-0.203125 0.375 -0.5625 0.375q-0.1875 0 -0.328125 -0.125q-0.125 -0.125 -0.15625 -0.375q-0.015625 -0.15625 -0.078125 -0.203125q-0.0625 -0.0625 -0.15625 -0.0625q-0.140625 0 -0.265625 0.0625q-0.203125 0.109375 -0.640625 0.625q-0.671875 0.796875 -1.453125 2.078125q-0.34375 0.53125 -0.59375 1.203125q-0.34375 0.921875 -0.390625 1.109375l-0.265625 1.03125l-1.234375 0l1.5 -5.046875q0.265625 -0.875 0.265625 -1.25q0 -0.15625 -0.125 -0.25q-0.15625 -0.125 -0.4375 -0.125q-0.171875 0 -0.625 0.0625l-0.046875 -0.296875zm9.325684 -3.6875q0.34375 0 0.578125 0.234375q0.234375 0.234375 0.234375 0.578125q0 0.34375 -0.234375 0.578125q-0.234375 0.234375 -0.578125 0.234375q-0.328125 0 -0.578125 -0.234375q-0.234375 -0.234375 -0.234375 -0.578125q0 -0.34375 0.234375 -0.578125q0.25 -0.234375 0.578125 -0.234375zm0.109375 3.234375l-1.609375 5.703125q-0.15625 0.578125 -0.15625 0.6875q0 0.125 0.078125 0.21875q0.078125 0.078125 0.171875 0.078125q0.125 0 0.296875 -0.140625q0.46875 -0.359375 0.9375 -1.03125l0.28125 0.1875q-0.546875 0.84375 -1.296875 1.421875q-0.5625 0.421875 -1.0625 0.421875q-0.328125 0 -0.546875 -0.1875q-0.203125 -0.203125 -0.203125 -0.5q0 -0.3125 0.203125 -1.0l1.046875 -3.640625q0.265625 -0.90625 0.265625 -1.125q0 -0.1875 -0.125 -0.296875q-0.125 -0.109375 -0.34375 -0.109375q-0.1875 0 -0.734375 0.078125l0 -0.3125l2.796875 -0.453125zm9.4713745 0.5l-0.234375 0.84375l-1.359375 0q0.15625 0.4375 0.15625 0.828125q0 1.078125 -0.90625 1.90625q-0.921875 0.84375 -2.515625 0.9375q-0.875 0.25 -1.296875 0.609375q-0.171875 0.125 -0.171875 0.265625q0 0.171875 0.140625 0.3125q0.15625 0.125 0.75 0.265625l1.578125 0.359375q1.3125 0.3125 1.734375 0.734375q0.421875 0.4375 0.421875 1.0q0 0.65625 -0.5 1.203125q-0.484375 0.5625 -1.4375 0.875q-0.953125 0.3125 -2.09375 0.3125q-1.015625 0 -1.84375 -0.25q-0.828125 -0.234375 -1.1875 -0.640625q-0.359375 -0.40625 -0.359375 -0.828125q0 -0.359375 0.234375 -0.734375q0.234375 -0.375 0.578125 -0.625q0.21875 -0.15625 1.25 -0.734375q-0.375 -0.28125 -0.375 -0.640625q0 -0.3125 0.328125 -0.671875q0.328125 -0.375 1.390625 -0.8125q-0.890625 -0.171875 -1.421875 -0.75q-0.515625 -0.578125 -0.515625 -1.296875q0 -1.140625 1.015625 -2.046875q1.015625 -0.921875 2.6875 -0.921875q0.609375 0 1.0 0.125q0.390625 0.125 0.765625 0.375l2.1875 0zm-2.8125 1.28125q0 -0.65625 -0.375 -1.03125q-0.359375 -0.375 -0.9375 -0.375q-0.921875 0 -1.515625 0.9375q-0.59375 0.921875 -0.59375 1.921875q0 0.625 0.375 1.03125q0.390625 0.390625 0.921875 0.390625q0.4375 0 0.84375 -0.234375q0.40625 -0.25 0.671875 -0.65625q0.28125 -0.421875 0.4375 -1.0625q0.171875 -0.640625 0.171875 -0.921875zm-3.90625 5.578125q-0.65625 0.296875 -1.0 0.765625q-0.328125 0.484375 -0.328125 0.9375q0 0.53125 0.484375 0.890625q0.703125 0.5 2.046875 0.5q1.171875 0 2.0 -0.40625q0.828125 -0.390625 0.828125 -1.015625q0 -0.3125 -0.3125 -0.609375q-0.296875 -0.28125 -1.1875 -0.453125q-0.46875 -0.09375 -2.53125 -0.609375zm11.265625 -11.5625l-2.28125 7.890625q1.46875 -2.21875 2.296875 -2.953125q0.828125 -0.734375 1.59375 -0.734375q0.390625 0 0.640625 0.265625q0.265625 0.265625 0.265625 0.71875q0 0.53125 -0.21875 1.296875l-1.0 3.40625q-0.1875 0.625 -0.1875 0.6875q0 0.109375 0.0625 0.1875q0.078125 0.078125 0.171875 0.078125q0.09375 0 0.234375 -0.109375q0.46875 -0.359375 0.921875 -1.0l0.25 0.15625q-0.265625 0.4375 -0.765625 0.953125q-0.484375 0.515625 -0.84375 0.71875q-0.359375 0.1875 -0.625 0.1875q-0.3125 0 -0.5 -0.1875q-0.1875 -0.1875 -0.1875 -0.484375q0 -0.359375 0.28125 -1.34375l0.9375 -3.25q0.171875 -0.609375 0.171875 -0.953125q0 -0.171875 -0.109375 -0.265625q-0.09375 -0.09375 -0.25 -0.09375q-0.234375 0 -0.53125 0.171875q-0.5625 0.34375 -1.28125 1.28125q-0.203125 0.25 -1.296875 2.03125q-0.34375 0.5625 -0.5625 1.234375l-0.53125 1.671875l-1.21875 0l2.6875 -9.296875l0.28125 -1.015625q0 -0.21875 -0.1875 -0.375q-0.171875 -0.15625 -0.421875 -0.15625q-0.140625 0 -0.4375 0.046875l-0.171875 0.015625l0 -0.3125l2.8125 -0.46875zm7.765625 2.1875l-0.640625 2.203125l1.28125 0l-0.140625 0.515625l-1.265625 0l-1.40625 4.796875q-0.21875 0.78125 -0.21875 1.0q0 0.140625 0.0625 0.21875q0.0625 0.078125 0.15625 0.078125q0.203125 0 0.53125 -0.296875q0.203125 -0.15625 0.875 -1.0l0.265625 0.203125q-0.75 1.09375 -1.40625 1.546875q-0.46875 0.296875 -0.921875 0.296875q-0.359375 0 -0.59375 -0.21875q-0.21875 -0.21875 -0.21875 -0.578125q0 -0.4375 0.25 -1.328125l1.359375 -4.71875l-1.21875 0l0.078125 -0.3125q0.890625 -0.25 1.484375 -0.734375q0.59375 -0.484375 1.328125 -1.671875l0.359375 0z" fill-rule="nonzero"/><path fill="#8ba8c8" d="m800.96 232.42667l1.5432739 0l0 84.47244l-1.5432739 0z" fill-rule="evenodd"/><path stroke="#8ba8c8" stroke-width="1.3333333333333333" stroke-linejoin="round" stroke-linecap="butt" d="m800.96 232.42667l1.5432739 0l0 84.47244l-1.5432739 0z" fill-rule="evenodd"/><path fill="#8ba8c8" d="m829.12 232.42667l1.543335 0l0 84.47244l-1.543335 0z" fill-rule="evenodd"/><path stroke="#8ba8c8" stroke-width="1.3333333333333333" stroke-linejoin="round" stroke-linecap="butt" d="m829.12 232.42667l1.543335 0l0 84.47244l-1.543335 0z" fill-rule="evenodd"/><path fill="#8ba8c8" d="m772.8 260.58667l84.47247 0l0 1.5433044l-84.47247 0z" fill-rule="evenodd"/><path stroke="#8ba8c8" stroke-width="1.3333333333333333" stroke-linejoin="round" stroke-linecap="butt" d="m772.8 260.58667l84.47247 0l0 1.5433044l-84.47247 0z" fill-rule="evenodd"/><path fill="#8ba8c8" d="m772.8 288.74667l84.47247 0l0 1.5433044l-84.47247 0z" fill-rule="evenodd"/><path stroke="#8ba8c8" stroke-width="1.3333333333333333" stroke-linejoin="round" stroke-linecap="butt" d="m772.8 288.74667l84.47247 0l0 1.5433044l-84.47247 0z" fill-rule="evenodd"/><path fill="#ffffff" fill-opacity="0.0" d="m772.8 232.42667l84.47247 0l0 84.47244l-84.47247 0z" fill-rule="evenodd"/><path stroke="#12213a" stroke-width="1.5984251968503937" stroke-linejoin="round" stroke-linecap="butt" d="m772.8 232.42667l84.47247 0l0 84.47244l-84.47247 0z" fill-rule="evenodd"/><path fill="#000000" fill-opacity="0.0" d="m835.3152 238.62184l15.779541 15.779526" fill-rule="evenodd"/><path stroke="#e05a2b" stroke-width="2.931758530183727" stroke-linejoin="round" stroke-linecap="butt" d="m835.3152 238.62184l15.779541 15.779526" fill-rule="evenodd"/><path fill="#000000" fill-opacity="0.0" d="m851.08484 238.62184l-15.779541 15.779526" fill-rule="evenodd"/><path stroke="#e05a2b" stroke-width="2.931758530183727" stroke-linejoin="round" stroke-linecap="butt" d="m851.08484 238.62184l-15.779541 15.779526" fill-rule="evenodd"/><path fill="#000000" fill-opacity="0.0" d="m143.03937 319.77786l-66.23622 37.44879" fill-rule="evenodd"/><path stroke="#a0b8d0" stroke-width="1.0" stroke-linejoin="round" stroke-linecap="butt" stroke-opacity="0.8" d="m143.03937 319.77786l-66.23622 37.44879" fill-rule="evenodd"/><path fill="#8ba8c8" d="m67.2 357.22665l1.5433121 0l0 57.606323l-1.5433121 0z" fill-rule="evenodd"/><path stroke="#8ba8c8" stroke-width="1.3333333333333333" stroke-linejoin="round" stroke-linecap="butt" d="m67.2 357.22665l1.5433121 0l0 57.606323l-1.5433121 0z" fill-rule="evenodd"/><path fill="#8ba8c8" d="m86.4 357.22665l1.5433044 0l0 57.606323l-1.5433044 0z" fill-rule="evenodd"/><path stroke="#8ba8c8" stroke-width="1.3333333333333333" stroke-linejoin="round" stroke-linecap="butt" d="m86.4 357.22665l1.5433044 0l0 57.606323l-1.5433044 0z" fill-rule="evenodd"/><path fill="#8ba8c8" d="m48.0 376.42667l57.6063 0l0 1.5433044l-57.6063 0z" fill-rule="evenodd"/><path stroke="#8ba8c8" stroke-width="1.3333333333333333" stroke-linejoin="round" stroke-linecap="butt" d="m48.0 376.42667l57.6063 0l0 1.5433044l-57.6063 0z" fill-rule="evenodd"/><path fill="#8ba8c8" d="m48.0 395.62668l57.6063 0l0 1.5433044l-57.6063 0z" fill-rule="evenodd"/><path stroke="#8ba8c8" stroke-width="1.3333333333333333" stroke-linejoin="round" stroke-linecap="butt" d="m48.0 395.62668l57.6063 0l0 1.5433044l-57.6063 0z" fill-rule="evenodd"/><path fill="#ffffff" fill-opacity="0.0" d="m48.0 357.22665l57.6063 0l0 57.606323l-57.6063 0z" fill-rule="evenodd"/><path stroke="#12213a" stroke-width="1.5984251968503937" stroke-linejoin="round" stroke-linecap="butt" d="m48.0 357.22665l57.6063 0l0 57.606323l-57.6063 0z" fill-rule="evenodd"/><path fill="#000000" fill-opacity="0.0" d="m52.22404 361.4507l10.740158 10.740143" fill-rule="evenodd"/><path stroke="#e05a2b" stroke-width="2.931758530183727" stroke-linejoin="round" stroke-linecap="butt" d="m52.22404 361.4507l10.740158 10.740143" fill-rule="evenodd"/><path fill="#000000" fill-opacity="0.0" d="m62.97596 361.4507l-10.740158 10.740143" fill-rule="evenodd"/><path stroke="#e05a2b" stroke-width="2.931758530183727" stroke-linejoin="round" stroke-linecap="butt" d="m62.97596 361.4507l-10.740158 10.740143" fill-rule="evenodd"/><path fill="#ffffff" fill-opacity="0.0" d="m52.22404 386.02078c0 -2.9658203 2.4042664 -5.3700867 5.370079 -5.3700867c1.4242325 0 2.7901344 0.5657959 3.7972183 1.572876c1.0070877 1.0070801 1.5728607 2.3729858 1.5728607 3.7972107c0 2.9658203 -2.4042664 5.3700867 -5.370079 5.3700867c-2.9658127 0 -5.370079 -2.4042664 -5.370079 -5.3700867z" fill-rule="evenodd"/><path stroke="#3b82c4" stroke-width="2.3989501312335957" stroke-linejoin="round" stroke-linecap="butt" d="m52.22404 386.02078c0 -2.9658203 2.4042664 -5.3700867 5.370079 -5.3700867c1.4242325 0 2.7901344 0.5657959 3.7972183 1.572876c1.0070877 1.0070801 1.5728607 2.3729858 1.5728607 3.7972107c0 2.9658203 -2.4042664 5.3700867 -5.370079 5.3700867c-2.9658127 0 -5.370079 -2.4042664 -5.370079 -5.3700867z" fill-rule="evenodd"/><path fill="#000000" fill-opacity="0.0" d="m71.42404 380.6507l10.740158 10.740173" fill-rule="evenodd"/><path stroke="#e05a2b" stroke-width="2.931758530183727" stroke-linejoin="round" stroke-linecap="butt" d="m71.42404 380.6507l10.740158 10.740173" fill-rule="evenodd"/><path fill="#000000" fill-opacity="0.0" d="m82.17596 380.6507l-10.740158 10.740173" fill-rule="evenodd"/><path stroke="#e05a2b" stroke-width="2.931758530183727" stroke-linejoin="round" stroke-linecap="butt" d="m82.17596 380.6507l-10.740158 10.740173" fill-rule="evenodd"/><path fill="#000000" fill-opacity="0.0" d="m143.02551 319.77786l2.897644 37.44879" fill-rule="evenodd"/><path stroke="#a0b8d0" stroke-width="1.0" stroke-linejoin="round" stroke-linecap="butt" stroke-opacity="0.8" d="m143.02551 319.77786l2.897644 37.44879" fill-rule="evenodd"/><path fill="#8ba8c8" d="m136.32 357.22665l1.5433044 0l0 57.606323l-1.5433044 0z" fill-rule="evenodd"/><path stroke="#8ba8c8" stroke-width="1.3333333333333333" stroke-linejoin="round" stroke-linecap="butt" d="m136.32 357.22665l1.5433044 0l0 57.606323l-1.5433044 0z" fill-rule="evenodd"/><path fill="#8ba8c8" d="m155.52 357.22665l1.5433044 0l0 57.606323l-1.5433044 0z" fill-rule="evenodd"/><path stroke="#8ba8c8" stroke-width="1.3333333333333333" stroke-linejoin="round" stroke-linecap="butt" d="m155.52 357.22665l1.5433044 0l0 57.606323l-1.5433044 0z" fill-rule="evenodd"/><path fill="#8ba8c8" d="m117.12 376.42667l57.6063 0l0 1.5433044l-57.6063 0z" fill-rule="evenodd"/><path stroke="#8ba8c8" stroke-width="1.3333333333333333" stroke-linejoin="round" stroke-linecap="butt" d="m117.12 376.42667l57.6063 0l0 1.5433044l-57.6063 0z" fill-rule="evenodd"/><path fill="#8ba8c8" d="m117.12 395.62668l57.6063 0l0 1.5433044l-57.6063 0z" fill-rule="evenodd"/><path stroke="#8ba8c8" stroke-width="1.3333333333333333" stroke-linejoin="round" stroke-linecap="butt" d="m117.12 395.62668l57.6063 0l0 1.5433044l-57.6063 0z" fill-rule="evenodd"/><path fill="#ffffff" fill-opacity="0.0" d="m117.12 357.22665l57.6063 0l0 57.606323l-57.6063 0z" fill-rule="evenodd"/><path stroke="#12213a" stroke-width="1.5984251968503937" stroke-linejoin="round" stroke-linecap="butt" d="m117.12 357.22665l57.6063 0l0 57.606323l-57.6063 0z" fill-rule="evenodd"/><path fill="#000000" fill-opacity="0.0" d="m121.34404 361.4507l10.740158 10.740143" fill-rule="evenodd"/><path stroke="#e05a2b" stroke-width="2.931758530183727" stroke-linejoin="round" stroke-linecap="butt" d="m121.34404 361.4507l10.740158 10.740143" fill-rule="evenodd"/><path fill="#000000" fill-opacity="0.0" d="m132.09596 361.4507l-10.740166 10.740143" fill-rule="evenodd"/><path stroke="#e05a2b" stroke-width="2.931758530183727" stroke-linejoin="round" stroke-linecap="butt" d="m132.09596 361.4507l-10.740166 10.740143" fill-rule="evenodd"/><path fill="#ffffff" fill-opacity="0.0" d="m159.74405 405.2208c0 -2.9658203 2.4042664 -5.3700867 5.3700714 -5.3700867c1.4242401 0 2.7901306 0.5657654 3.797226 1.5728455c1.0070801 1.0071106 1.5728455 2.3729858 1.5728455 3.7972412c0 2.9658203 -2.404251 5.3700867 -5.3700714 5.3700867c-2.965805 0 -5.3700714 -2.4042664 -5.3700714 -5.3700867z" fill-rule="evenodd"/><path stroke="#3b82c4" stroke-width="2.3989501312335957" stroke-linejoin="round" stroke-linecap="butt" d="m159.74405 405.2208c0 -2.9658203 2.4042664 -5.3700867 5.3700714 -5.3700867c1.4242401 0 2.7901306 0.5657654 3.797226 1.5728455c1.0070801 1.0071106 1.5728455 2.3729858 1.5728455 3.7972412c0 2.9658203 -2.404251 5.3700867 -5.3700714 5.3700867c-2.965805 0 -5.3700714 -2.4042664 -5.3700714 -5.3700867z" fill-rule="evenodd"/><path fill="#000000" fill-opacity="0.0" d="m140.54404 380.6507l10.740158 10.740173" fill-rule="evenodd"/><path stroke="#e05a2b" stroke-width="2.931758530183727" stroke-linejoin="round" stroke-linecap="butt" d="m140.54404 380.6507l10.740158 10.740173" fill-rule="evenodd"/><path fill="#000000" fill-opacity="0.0" d="m151.29596 380.6507l-10.740158 10.740173" fill-rule="evenodd"/><path stroke="#e05a2b" stroke-width="2.931758530183727" stroke-linejoin="round" stroke-linecap="butt" d="m151.29596 380.6507l-10.740158 10.740173" fill-rule="evenodd"/><path fill="#000000" fill-opacity="0.0" d="m479.99686 319.77786l-230.3937 37.44879" fill-rule="evenodd"/><path stroke="#a0b8d0" stroke-width="1.0" stroke-linejoin="round" stroke-linecap="butt" stroke-opacity="0.8" d="m479.99686 319.77786l-230.3937 37.44879" fill-rule="evenodd"/><path fill="#8ba8c8" d="m240.0 357.22665l1.5433044 0l0 57.606323l-1.5433044 0z" fill-rule="evenodd"/><path stroke="#8ba8c8" stroke-width="1.3333333333333333" stroke-linejoin="round" stroke-linecap="butt" d="m240.0 357.22665l1.5433044 0l0 57.606323l-1.5433044 0z" fill-rule="evenodd"/><path fill="#8ba8c8" d="m259.2 357.22665l1.5433044 0l0 57.606323l-1.5433044 0z" fill-rule="evenodd"/><path stroke="#8ba8c8" stroke-width="1.3333333333333333" stroke-linejoin="round" stroke-linecap="butt" d="m259.2 357.22665l1.5433044 0l0 57.606323l-1.5433044 0z" fill-rule="evenodd"/><path fill="#8ba8c8" d="m220.8 376.42667l57.606308 0l0 1.5433044l-57.606308 0z" fill-rule="evenodd"/><path stroke="#8ba8c8" stroke-width="1.3333333333333333" stroke-linejoin="round" stroke-linecap="butt" d="m220.8 376.42667l57.606308 0l0 1.5433044l-57.606308 0z" fill-rule="evenodd"/><path fill="#8ba8c8" d="m220.8 395.62668l57.606308 0l0 1.5433044l-57.606308 0z" fill-rule="evenodd"/><path stroke="#8ba8c8" stroke-width="1.3333333333333333" stroke-linejoin="round" stroke-linecap="butt" d="m220.8 395.62668l57.606308 0l0 1.5433044l-57.606308 0z" fill-rule="evenodd"/><path fill="#ffffff" fill-opacity="0.0" d="m220.8 357.22665l57.606308 0l0 57.606323l-57.606308 0z" fill-rule="evenodd"/><path stroke="#12213a" stroke-width="1.5984251968503937" stroke-linejoin="round" stroke-linecap="butt" d="m220.8 357.22665l57.606308 0l0 57.606323l-57.606308 0z" fill-rule="evenodd"/><path fill="#000000" fill-opacity="0.0" d="m244.22404 380.6507l10.740158 10.740173" fill-rule="evenodd"/><path stroke="#e05a2b" stroke-width="2.931758530183727" stroke-linejoin="round" stroke-linecap="butt" d="m244.22404 380.6507l10.740158 10.740173" fill-rule="evenodd"/><path fill="#000000" fill-opacity="0.0" d="m254.97595 380.6507l-10.740158 10.740173" fill-rule="evenodd"/><path stroke="#e05a2b" stroke-width="2.931758530183727" stroke-linejoin="round" stroke-linecap="butt" d="m254.97595 380.6507l-10.740158 10.740173" fill-rule="evenodd"/><path fill="#ffffff" fill-opacity="0.0" d="m225.02405 366.8208c0 -2.9658203 2.4042664 -5.3700867 5.3700714 -5.3700867c1.4242401 0 2.7901306 0.5657654 3.797226 1.5728455c1.0070801 1.0070801 1.5728607 2.3729858 1.5728607 3.7972412c0 2.9657898 -2.4042664 5.370056 -5.3700867 5.370056c-2.965805 0 -5.3700714 -2.4042664 -5.3700714 -5.370056z" fill-rule="evenodd"/><path stroke="#3b82c4" stroke-width="2.3989501312335957" stroke-linejoin="round" stroke-linecap="butt" d="m225.02405 366.8208c0 -2.9658203 2.4042664 -5.3700867 5.3700714 -5.3700867c1.4242401 0 2.7901306 0.5657654 3.797226 1.5728455c1.0070801 1.0070801 1.5728607 2.3729858 1.5728607 3.7972412c0 2.9657898 -2.4042664 5.370056 -5.3700867 5.370056c-2.965805 0 -5.3700714 -2.4042664 -5.3700714 -5.370056z" fill-rule="evenodd"/><path fill="#000000" fill-opacity="0.0" d="m263.42404 361.4507l10.740143 10.740143" fill-rule="evenodd"/><path stroke="#e05a2b" stroke-width="2.931758530183727" stroke-linejoin="round" stroke-linecap="butt" d="m263.42404 361.4507l10.740143 10.740143" fill-rule="evenodd"/><path fill="#000000" fill-opacity="0.0" d="m274.17596 361.4507l-10.740173 10.740143" fill-rule="evenodd"/><path stroke="#e05a2b" stroke-width="2.931758530183727" stroke-linejoin="round" stroke-linecap="butt" d="m274.17596 361.4507l-10.740173 10.740143" fill-rule="evenodd"/><path fill="#000000" fill-opacity="0.0" d="m480.0107 319.77786l-155.52756 37.44879" fill-rule="evenodd"/><path stroke="#a0b8d0" stroke-width="1.0" stroke-linejoin="round" stroke-linecap="butt" stroke-opacity="0.8" d="m480.0107 319.77786l-155.52756 37.44879" fill-rule="evenodd"/><path fill="#8ba8c8" d="m314.88 357.22665l1.5433044 0l0 57.606323l-1.5433044 0z" fill-rule="evenodd"/><path stroke="#8ba8c8" stroke-width="1.3333333333333333" stroke-linejoin="round" stroke-linecap="butt" d="m314.88 357.22665l1.5433044 0l0 57.606323l-1.5433044 0z" fill-rule="evenodd"/><path fill="#8ba8c8" d="m334.08 357.22665l1.543335 0l0 57.606323l-1.543335 0z" fill-rule="evenodd"/><path stroke="#8ba8c8" stroke-width="1.3333333333333333" stroke-linejoin="round" stroke-linecap="butt" d="m334.08 357.22665l1.543335 0l0 57.606323l-1.543335 0z" fill-rule="evenodd"/><path fill="#8ba8c8" d="m295.68 376.42667l57.606293 0l0 1.5433044l-57.606293 0z" fill-rule="evenodd"/><path stroke="#8ba8c8" stroke-width="1.3333333333333333" stroke-linejoin="round" stroke-linecap="butt" d="m295.68 376.42667l57.606293 0l0 1.5433044l-57.606293 0z" fill-rule="evenodd"/><path fill="#8ba8c8" d="m295.68 395.62668l57.606293 0l0 1.5433044l-57.606293 0z" fill-rule="evenodd"/><path stroke="#8ba8c8" stroke-width="1.3333333333333333" stroke-linejoin="round" stroke-linecap="butt" d="m295.68 395.62668l57.606293 0l0 1.5433044l-57.606293 0z" fill-rule="evenodd"/><path fill="#ffffff" fill-opacity="0.0" d="m295.68 357.22665l57.606293 0l0 57.606323l-57.606293 0z" fill-rule="evenodd"/><path stroke="#12213a" stroke-width="1.5984251968503937" stroke-linejoin="round" stroke-linecap="butt" d="m295.68 357.22665l57.606293 0l0 57.606323l-57.606293 0z" fill-rule="evenodd"/><path fill="#000000" fill-opacity="0.0" d="m319.10403 380.6507l10.740173 10.740173" fill-rule="evenodd"/><path stroke="#e05a2b" stroke-width="2.931758530183727" stroke-linejoin="round" stroke-linecap="butt" d="m319.10403 380.6507l10.740173 10.740173" fill-rule="evenodd"/><path fill="#000000" fill-opacity="0.0" d="m329.85596 380.6507l-10.740143 10.740173" fill-rule="evenodd"/><path stroke="#e05a2b" stroke-width="2.931758530183727" stroke-linejoin="round" stroke-linecap="butt" d="m329.85596 380.6507l-10.740143 10.740173" fill-rule="evenodd"/><path fill="#ffffff" fill-opacity="0.0" d="m319.10403 366.8208c0 -2.9658203 2.4042664 -5.3700867 5.3700867 -5.3700867c1.4242249 0 2.7901306 0.5657654 3.7972107 1.5728455c1.0070801 1.0070801 1.572876 2.3729858 1.572876 3.7972412c0 2.9657898 -2.4042664 5.370056 -5.3700867 5.370056c-2.9658203 0 -5.3700867 -2.4042664 -5.3700867 -5.370056z" fill-rule="evenodd"/><path stroke="#3b82c4" stroke-width="2.3989501312335957" stroke-linejoin="round" stroke-linecap="butt" d="m319.10403 366.8208c0 -2.9658203 2.4042664 -5.3700867 5.3700867 -5.3700867c1.4242249 0 2.7901306 0.5657654 3.7972107 1.5728455c1.0070801 1.0070801 1.572876 2.3729858 1.572876 3.7972412c0 2.9657898 -2.4042664 5.370056 -5.3700867 5.370056c-2.9658203 0 -5.3700867 -2.4042664 -5.3700867 -5.370056z" fill-rule="evenodd"/><path fill="#000000" fill-opacity="0.0" d="m338.30405 399.8507l10.740143 10.740173" fill-rule="evenodd"/><path stroke="#e05a2b" stroke-width="2.931758530183727" stroke-linejoin="round" stroke-linecap="butt" d="m338.30405 399.8507l10.740143 10.740173" fill-rule="evenodd"/><path fill="#000000" fill-opacity="0.0" d="m349.05597 399.8507l-10.740173 10.740173" fill-rule="evenodd"/><path stroke="#e05a2b" stroke-width="2.931758530183727" stroke-linejoin="round" stroke-linecap="butt" d="m349.05597 399.8507l-10.740173 10.740173" fill-rule="evenodd"/><path fill="#000000" fill-opacity="0.0" d="m479.99686 319.77786l9.606293 37.44879" fill-rule="evenodd"/><path stroke="#a0b8d0" stroke-width="1.0" stroke-linejoin="round" stroke-linecap="butt" stroke-opacity="0.8" d="m479.99686 319.77786l9.606293 37.44879" fill-rule="evenodd"/><path fill="#8ba8c8" d="m480.0 357.22665l1.5433044 0l0 57.606323l-1.5433044 0z" fill-rule="evenodd"/><path stroke="#8ba8c8" stroke-width="1.3333333333333333" stroke-linejoin="round" stroke-linecap="butt" d="m480.0 357.22665l1.5433044 0l0 57.606323l-1.5433044 0z" fill-rule="evenodd"/><path fill="#8ba8c8" d="m499.2 357.22665l1.5433044 0l0 57.606323l-1.5433044 0z" fill-rule="evenodd"/><path stroke="#8ba8c8" stroke-width="1.3333333333333333" stroke-linejoin="round" stroke-linecap="butt" d="m499.2 357.22665l1.5433044 0l0 57.606323l-1.5433044 0z" fill-rule="evenodd"/><path fill="#8ba8c8" d="m460.8 376.42667l57.606323 0l0 1.5433044l-57.606323 0z" fill-rule="evenodd"/><path stroke="#8ba8c8" stroke-width="1.3333333333333333" stroke-linejoin="round" stroke-linecap="butt" d="m460.8 376.42667l57.606323 0l0 1.5433044l-57.606323 0z" fill-rule="evenodd"/><path fill="#8ba8c8" d="m460.8 395.62668l57.606323 0l0 1.5433044l-57.606323 0z" fill-rule="evenodd"/><path stroke="#8ba8c8" stroke-width="1.3333333333333333" stroke-linejoin="round" stroke-linecap="butt" d="m460.8 395.62668l57.606323 0l0 1.5433044l-57.606323 0z" fill-rule="evenodd"/><path fill="#ffffff" fill-opacity="0.0" d="m460.8 357.22665l57.606323 0l0 57.606323l-57.606323 0z" fill-rule="evenodd"/><path stroke="#12213a" stroke-width="1.5984251968503937" stroke-linejoin="round" stroke-linecap="butt" d="m460.8 357.22665l57.606323 0l0 57.606323l-57.606323 0z" fill-rule="evenodd"/><path fill="#000000" fill-opacity="0.0" d="m484.22403 380.6507l10.740173 10.740173" fill-rule="evenodd"/><path stroke="#e05a2b" stroke-width="2.931758530183727" stroke-linejoin="round" stroke-linecap="butt" d="m484.22403 380.6507l10.740173 10.740173" fill-rule="evenodd"/><path fill="#000000" fill-opacity="0.0" d="m494.97595 380.6507l-10.740143 10.740173" fill-rule="evenodd"/><path stroke="#e05a2b" stroke-width="2.931758530183727" stroke-linejoin="round" stroke-linecap="butt" d="m494.97595 380.6507l-10.740143 10.740173" fill-rule="evenodd"/><path fill="#ffffff" fill-opacity="0.0" d="m465.02405 386.02078c0 -2.9658203 2.4042664 -5.3700867 5.3700867 -5.3700867c1.4242249 0 2.7901306 0.5657959 3.7972107 1.572876c1.0070801 1.0070801 1.5728455 2.3729858 1.5728455 3.7972107c0 2.9658203 -2.4042664 5.3700867 -5.370056 5.3700867c-2.9658203 0 -5.3700867 -2.4042664 -5.3700867 -5.3700867z" fill-rule="evenodd"/><path stroke="#3b82c4" stroke-width="2.3989501312335957" stroke-linejoin="round" stroke-linecap="butt" d="m465.02405 386.02078c0 -2.9658203 2.4042664 -5.3700867 5.3700867 -5.3700867c1.4242249 0 2.7901306 0.5657959 3.7972107 1.572876c1.0070801 1.0070801 1.5728455 2.3729858 1.5728455 3.7972107c0 2.9658203 -2.4042664 5.3700867 -5.370056 5.3700867c-2.9658203 0 -5.3700867 -2.4042664 -5.3700867 -5.3700867z" fill-rule="evenodd"/><path fill="#000000" fill-opacity="0.0" d="m465.02405 361.4507l10.740143 10.740143" fill-rule="evenodd"/><path stroke="#e05a2b" stroke-width="2.931758530183727" stroke-linejoin="round" stroke-linecap="butt" d="m465.02405 361.4507l10.740143 10.740143" fill-rule="evenodd"/><path fill="#000000" fill-opacity="0.0" d="m475.77597 361.4507l-10.740173 10.740143" fill-rule="evenodd"/><path stroke="#e05a2b" stroke-width="2.931758530183727" stroke-linejoin="round" stroke-linecap="butt" d="m475.77597 361.4507l-10.740173 10.740143" fill-rule="evenodd"/><path fill="#000000" fill-opacity="0.0" d="m480.0107 319.77786l84.47244 37.44879" fill-rule="evenodd"/><path stroke="#a0b8d0" stroke-width="1.0" stroke-linejoin="round" stroke-linecap="butt" stroke-opacity="0.8" d="m480.0107 319.77786l84.47244 37.44879" fill-rule="evenodd"/><path fill="#8ba8c8" d="m554.88 357.22665l1.5432739 0l0 57.606323l-1.5432739 0z" fill-rule="evenodd"/><path stroke="#8ba8c8" stroke-width="1.3333333333333333" stroke-linejoin="round" stroke-linecap="butt" d="m554.88 357.22665l1.5432739 0l0 57.606323l-1.5432739 0z" fill-rule="evenodd"/><path fill="#8ba8c8" d="m574.08 357.22665l1.5432739 0l0 57.606323l-1.5432739 0z" fill-rule="evenodd"/><path stroke="#8ba8c8" stroke-width="1.3333333333333333" stroke-linejoin="round" stroke-linecap="butt" d="m574.08 357.22665l1.5432739 0l0 57.606323l-1.5432739 0z" fill-rule="evenodd"/><path fill="#8ba8c8" d="m535.68 376.42667l57.606323 0l0 1.5433044l-57.606323 0z" fill-rule="evenodd"/><path stroke="#8ba8c8" stroke-width="1.3333333333333333" stroke-linejoin="round" stroke-linecap="butt" d="m535.68 376.42667l57.606323 0l0 1.5433044l-57.606323 0z" fill-rule="evenodd"/><path fill="#8ba8c8" d="m535.68 395.62668l57.606323 0l0 1.5433044l-57.606323 0z" fill-rule="evenodd"/><path stroke="#8ba8c8" stroke-width="1.3333333333333333" stroke-linejoin="round" stroke-linecap="butt" d="m535.68 395.62668l57.606323 0l0 1.5433044l-57.606323 0z" fill-rule="evenodd"/><path fill="#ffffff" fill-opacity="0.0" d="m535.68 357.22665l57.606323 0l0 57.606323l-57.606323 0z" fill-rule="evenodd"/><path stroke="#12213a" stroke-width="1.5984251968503937" stroke-linejoin="round" stroke-linecap="butt" d="m535.68 357.22665l57.606323 0l0 57.606323l-57.606323 0z" fill-rule="evenodd"/><path fill="#000000" fill-opacity="0.0" d="m559.10406 380.6507l10.740112 10.740173" fill-rule="evenodd"/><path stroke="#e05a2b" stroke-width="2.931758530183727" stroke-linejoin="round" stroke-linecap="butt" d="m559.10406 380.6507l10.740112 10.740173" fill-rule="evenodd"/><path fill="#000000" fill-opacity="0.0" d="m569.85596 380.6507l-10.740173 10.740173" fill-rule="evenodd"/><path stroke="#e05a2b" stroke-width="2.931758530183727" stroke-linejoin="round" stroke-linecap="butt" d="m569.85596 380.6507l-10.740173 10.740173" fill-rule="evenodd"/><path fill="#ffffff" fill-opacity="0.0" d="m578.304 386.02078c0 -2.9658203 2.4042969 -5.3700867 5.370117 -5.3700867c1.4241943 0 2.7901 0.5657959 3.7971802 1.572876c1.0071411 1.0070801 1.572876 2.3729858 1.572876 3.7972107c0 2.9658203 -2.4042358 5.3700867 -5.370056 5.3700867c-2.9658203 0 -5.370117 -2.4042664 -5.370117 -5.3700867z" fill-rule="evenodd"/><path stroke="#3b82c4" stroke-width="2.3989501312335957" stroke-linejoin="round" stroke-linecap="butt" d="m578.304 386.02078c0 -2.9658203 2.4042969 -5.3700867 5.370117 -5.3700867c1.4241943 0 2.7901 0.5657959 3.7971802 1.572876c1.0071411 1.0070801 1.572876 2.3729858 1.572876 3.7972107c0 2.9658203 -2.4042358 5.3700867 -5.370056 5.3700867c-2.9658203 0 -5.370117 -2.4042664 -5.370117 -5.3700867z" fill-rule="evenodd"/><path fill="#000000" fill-opacity="0.0" d="m539.90405 399.8507l10.740173 10.740173" fill-rule="evenodd"/><path stroke="#e05a2b" stroke-width="2.931758530183727" stroke-linejoin="round" stroke-linecap="butt" d="m539.90405 399.8507l10.740173 10.740173" fill-rule="evenodd"/><path fill="#000000" fill-opacity="0.0" d="m550.65594 399.8507l-10.740173 10.740173" fill-rule="evenodd"/><path stroke="#e05a2b" stroke-width="2.931758530183727" stroke-linejoin="round" stroke-linecap="butt" d="m550.65594 399.8507l-10.740173 10.740173" fill-rule="evenodd"/><path fill="#000000" fill-opacity="0.0" d="m815.0318 319.77786l-150.70868 37.44879" fill-rule="evenodd"/><path stroke="#a0b8d0" stroke-width="1.0" stroke-linejoin="round" stroke-linecap="butt" stroke-opacity="0.8" d="m815.0318 319.77786l-150.70868 37.44879" fill-rule="evenodd"/><path fill="#8ba8c8" d="m654.72 357.22665l1.543335 0l0 57.606323l-1.543335 0z" fill-rule="evenodd"/><path stroke="#8ba8c8" stroke-width="1.3333333333333333" stroke-linejoin="round" stroke-linecap="butt" d="m654.72 357.22665l1.543335 0l0 57.606323l-1.543335 0z" fill-rule="evenodd"/><path fill="#8ba8c8" d="m673.92 357.22665l1.543335 0l0 57.606323l-1.543335 0z" fill-rule="evenodd"/><path stroke="#8ba8c8" stroke-width="1.3333333333333333" stroke-linejoin="round" stroke-linecap="butt" d="m673.92 357.22665l1.543335 0l0 57.606323l-1.543335 0z" fill-rule="evenodd"/><path fill="#8ba8c8" d="m635.52 376.42667l57.606262 0l0 1.5433044l-57.606262 0z" fill-rule="evenodd"/><path stroke="#8ba8c8" stroke-width="1.3333333333333333" stroke-linejoin="round" stroke-linecap="butt" d="m635.52 376.42667l57.606262 0l0 1.5433044l-57.606262 0z" fill-rule="evenodd"/><path fill="#8ba8c8" d="m635.52 395.62668l57.606262 0l0 1.5433044l-57.606262 0z" fill-rule="evenodd"/><path stroke="#8ba8c8" stroke-width="1.3333333333333333" stroke-linejoin="round" stroke-linecap="butt" d="m635.52 395.62668l57.606262 0l0 1.5433044l-57.606262 0z" fill-rule="evenodd"/><path fill="#ffffff" fill-opacity="0.0" d="m635.52 357.22665l57.606262 0l0 57.606323l-57.606262 0z" fill-rule="evenodd"/><path stroke="#12213a" stroke-width="1.5984251968503937" stroke-linejoin="round" stroke-linecap="butt" d="m635.52 357.22665l57.606262 0l0 57.606323l-57.606262 0z" fill-rule="evenodd"/><path fill="#000000" fill-opacity="0.0" d="m678.14404 361.4507l10.740173 10.740143" fill-rule="evenodd"/><path stroke="#e05a2b" stroke-width="2.931758530183727" stroke-linejoin="round" stroke-linecap="butt" d="m678.14404 361.4507l10.740173 10.740143" fill-rule="evenodd"/><path fill="#000000" fill-opacity="0.0" d="m688.89594 361.4507l-10.740112 10.740143" fill-rule="evenodd"/><path stroke="#e05a2b" stroke-width="2.931758530183727" stroke-linejoin="round" stroke-linecap="butt" d="m688.89594 361.4507l-10.740112 10.740143" fill-rule="evenodd"/><path fill="#ffffff" fill-opacity="0.0" d="m658.94403 386.02078c0 -2.9658203 2.4042969 -5.3700867 5.370117 -5.3700867c1.4241943 0 2.7901 0.5657959 3.7971802 1.572876c1.0070801 1.0070801 1.572876 2.3729858 1.572876 3.7972107c0 2.9658203 -2.4042969 5.3700867 -5.370056 5.3700867c-2.9658203 0 -5.370117 -2.4042664 -5.370117 -5.3700867z" fill-rule="evenodd"/><path stroke="#3b82c4" stroke-width="2.3989501312335957" stroke-linejoin="round" stroke-linecap="butt" d="m658.94403 386.02078c0 -2.9658203 2.4042969 -5.3700867 5.370117 -5.3700867c1.4241943 0 2.7901 0.5657959 3.7971802 1.572876c1.0070801 1.0070801 1.572876 2.3729858 1.572876 3.7972107c0 2.9658203 -2.4042969 5.3700867 -5.370056 5.3700867c-2.9658203 0 -5.370117 -2.4042664 -5.370117 -5.3700867z" fill-rule="evenodd"/><path fill="#000000" fill-opacity="0.0" d="m639.744 399.8507l10.740173 10.740173" fill-rule="evenodd"/><path stroke="#e05a2b" stroke-width="2.931758530183727" stroke-linejoin="round" stroke-linecap="butt" d="m639.744 399.8507l10.740173 10.740173" fill-rule="evenodd"/><path fill="#000000" fill-opacity="0.0" d="m650.496 399.8507l-10.740173 10.740173" fill-rule="evenodd"/><path stroke="#e05a2b" stroke-width="2.931758530183727" stroke-linejoin="round" stroke-linecap="butt" d="m650.496 399.8507l-10.740173 10.740173" fill-rule="evenodd"/><path fill="#000000" fill-opacity="0.0" d="m815.04565 319.77786l-75.84253 37.44879" fill-rule="evenodd"/><path stroke="#a0b8d0" stroke-width="1.0" stroke-linejoin="round" stroke-linecap="butt" stroke-opacity="0.8" d="m815.04565 319.77786l-75.84253 37.44879" fill-rule="evenodd"/><path fill="#8ba8c8" d="m729.6 357.22665l1.543335 0l0 57.606323l-1.543335 0z" fill-rule="evenodd"/><path stroke="#8ba8c8" stroke-width="1.3333333333333333" stroke-linejoin="round" stroke-linecap="butt" d="m729.6 357.22665l1.543335 0l0 57.606323l-1.543335 0z" fill-rule="evenodd"/><path fill="#8ba8c8" d="m748.8 357.22665l1.543335 0l0 57.606323l-1.543335 0z" fill-rule="evenodd"/><path stroke="#8ba8c8" stroke-width="1.3333333333333333" stroke-linejoin="round" stroke-linecap="butt" d="m748.8 357.22665l1.543335 0l0 57.606323l-1.543335 0z" fill-rule="evenodd"/><path fill="#8ba8c8" d="m710.4 376.42667l57.606262 0l0 1.5433044l-57.606262 0z" fill-rule="evenodd"/><path stroke="#8ba8c8" stroke-width="1.3333333333333333" stroke-linejoin="round" stroke-linecap="butt" d="m710.4 376.42667l57.606262 0l0 1.5433044l-57.606262 0z" fill-rule="evenodd"/><path fill="#8ba8c8" d="m710.4 395.62668l57.606262 0l0 1.5433044l-57.606262 0z" fill-rule="evenodd"/><path stroke="#8ba8c8" stroke-width="1.3333333333333333" stroke-linejoin="round" stroke-linecap="butt" d="m710.4 395.62668l57.606262 0l0 1.5433044l-57.606262 0z" fill-rule="evenodd"/><path fill="#ffffff" fill-opacity="0.0" d="m710.4 357.22665l57.606262 0l0 57.606323l-57.606262 0z" fill-rule="evenodd"/><path stroke="#12213a" stroke-width="1.5984251968503937" stroke-linejoin="round" stroke-linecap="butt" d="m710.4 357.22665l57.606262 0l0 57.606323l-57.606262 0z" fill-rule="evenodd"/><path fill="#000000" fill-opacity="0.0" d="m753.02405 361.4507l10.740173 10.740143" fill-rule="evenodd"/><path stroke="#e05a2b" stroke-width="2.931758530183727" stroke-linejoin="round" stroke-linecap="butt" d="m753.02405 361.4507l10.740173 10.740143" fill-rule="evenodd"/><path fill="#000000" fill-opacity="0.0" d="m763.77594 361.4507l-10.740112 10.740143" fill-rule="evenodd"/><path stroke="#e05a2b" stroke-width="2.931758530183727" stroke-linejoin="round" stroke-linecap="butt" d="m763.77594 361.4507l-10.740112 10.740143" fill-rule="evenodd"/><path fill="#ffffff" fill-opacity="0.0" d="m714.624 366.8208c0 -2.9658203 2.4042969 -5.3700867 5.370117 -5.3700867c1.4241943 0 2.7901 0.5657654 3.7971802 1.5728455c1.0070801 1.0070801 1.572876 2.3729858 1.572876 3.7972412c0 2.9657898 -2.4042358 5.370056 -5.370056 5.370056c-2.9658203 0 -5.370117 -2.4042664 -5.370117 -5.370056z" fill-rule="evenodd"/><path stroke="#3b82c4" stroke-width="2.3989501312335957" stroke-linejoin="round" stroke-linecap="butt" d="m714.624 366.8208c0 -2.9658203 2.4042969 -5.3700867 5.370117 -5.3700867c1.4241943 0 2.7901 0.5657654 3.7971802 1.5728455c1.0070801 1.0070801 1.572876 2.3729858 1.572876 3.7972412c0 2.9657898 -2.4042358 5.370056 -5.370056 5.370056c-2.9658203 0 -5.370117 -2.4042664 -5.370117 -5.370056z" fill-rule="evenodd"/><path fill="#000000" fill-opacity="0.0" d="m753.02405 399.8507l10.740173 10.740173" fill-rule="evenodd"/><path stroke="#e05a2b" stroke-width="2.931758530183727" stroke-linejoin="round" stroke-linecap="butt" d="m753.02405 399.8507l10.740173 10.740173" fill-rule="evenodd"/><path fill="#000000" fill-opacity="0.0" d="m763.77594 399.8507l-10.740112 10.740173" fill-rule="evenodd"/><path stroke="#e05a2b" stroke-width="2.931758530183727" stroke-linejoin="round" stroke-linecap="butt" d="m763.77594 399.8507l-10.740112 10.740173" fill-rule="evenodd"/><path fill="#000000" fill-opacity="0.0" d="m815.05194 319.77786l58.55121 37.44879" fill-rule="evenodd"/><path stroke="#a0b8d0" stroke-width="1.0" stroke-linejoin="round" stroke-linecap="butt" stroke-opacity="0.8" d="m815.05194 319.77786l58.55121 37.44879" fill-rule="evenodd"/><path fill="#8ba8c8" d="m864.0 357.22665l1.543335 0l0 57.606323l-1.543335 0z" fill-rule="evenodd"/><path stroke="#8ba8c8" stroke-width="1.3333333333333333" stroke-linejoin="round" stroke-linecap="butt" d="m864.0 357.22665l1.543335 0l0 57.606323l-1.543335 0z" fill-rule="evenodd"/><path fill="#8ba8c8" d="m883.2 357.22665l1.5432739 0l0 57.606323l-1.5432739 0z" fill-rule="evenodd"/><path stroke="#8ba8c8" stroke-width="1.3333333333333333" stroke-linejoin="round" stroke-linecap="butt" d="m883.2 357.22665l1.5432739 0l0 57.606323l-1.5432739 0z" fill-rule="evenodd"/><path fill="#8ba8c8" d="m844.8 376.42667l57.606323 0l0 1.5433044l-57.606323 0z" fill-rule="evenodd"/><path stroke="#8ba8c8" stroke-width="1.3333333333333333" stroke-linejoin="round" stroke-linecap="butt" d="m844.8 376.42667l57.606323 0l0 1.5433044l-57.606323 0z" fill-rule="evenodd"/><path fill="#8ba8c8" d="m844.8 395.62668l57.606323 0l0 1.5433044l-57.606323 0z" fill-rule="evenodd"/><path stroke="#8ba8c8" stroke-width="1.3333333333333333" stroke-linejoin="round" stroke-linecap="butt" d="m844.8 395.62668l57.606323 0l0 1.5433044l-57.606323 0z" fill-rule="evenodd"/><path fill="#ffffff" fill-opacity="0.0" d="m844.8 357.22665l57.606323 0l0 57.606323l-57.606323 0z" fill-rule="evenodd"/><path stroke="#12213a" stroke-width="1.5984251968503937" stroke-linejoin="round" stroke-linecap="butt" d="m844.8 357.22665l57.606323 0l0 57.606323l-57.606323 0z" fill-rule="evenodd"/><path fill="#000000" fill-opacity="0.0" d="m887.4241 362.1499l10.740112 10.740143" fill-rule="evenodd"/><path stroke="#e05a2b" stroke-width="2.931758530183727" stroke-linejoin="round" stroke-linecap="butt" d="m887.4241 362.1499l10.740112 10.740143" fill-rule="evenodd"/><path fill="#000000" fill-opacity="0.0" d="m898.17596 362.1499l-10.740173 10.740143" fill-rule="evenodd"/><path stroke="#e05a2b" stroke-width="2.931758530183727" stroke-linejoin="round" stroke-linecap="butt" d="m898.17596 362.1499l-10.740173 10.740143" fill-rule="evenodd"/><path fill="#ffffff" fill-opacity="0.0" d="m849.02405 405.2208c0 -2.9658203 2.4042358 -5.3700867 5.370056 -5.3700867c1.4242554 0 2.7901611 0.5657654 3.7972412 1.5728455c1.0070801 1.0071106 1.572876 2.3729858 1.572876 3.7972412c0 2.9658203 -2.4042969 5.3700867 -5.370117 5.3700867c-2.9658203 0 -5.370056 -2.4042664 -5.370056 -5.3700867z" fill-rule="evenodd"/><path stroke="#3b82c4" stroke-width="2.3989501312335957" stroke-linejoin="round" stroke-linecap="butt" d="m849.02405 405.2208c0 -2.9658203 2.4042358 -5.3700867 5.370056 -5.3700867c1.4242554 0 2.7901611 0.5657654 3.7972412 1.5728455c1.0070801 1.0071106 1.572876 2.3729858 1.572876 3.7972412c0 2.9658203 -2.4042969 5.3700867 -5.370117 5.3700867c-2.9658203 0 -5.370056 -2.4042664 -5.370056 -5.3700867z" fill-rule="evenodd"/><path fill="#000000" fill-opacity="0.0" d="m868.22406 380.6507l10.740112 10.740173" fill-rule="evenodd"/><path stroke="#e05a2b" stroke-width="2.931758530183727" stroke-linejoin="round" stroke-linecap="butt" d="m868.22406 380.6507l10.740112 10.740173" fill-rule="evenodd"/><path fill="#000000" fill-opacity="0.0" d="m878.97595 380.6507l-10.740173 10.740173" fill-rule="evenodd"/><path stroke="#e05a2b" stroke-width="2.931758530183727" stroke-linejoin="round" stroke-linecap="butt" d="m878.97595 380.6507l-10.740173 10.740173" fill-rule="evenodd"/><path fill="#000000" fill-opacity="0.0" d="m755.5073 100.15166l30.70868 0" fill-rule="evenodd"/><path stroke="#e05a2b" stroke-width="2.931758530183727" stroke-linejoin="round" stroke-linecap="butt" d="m755.5073 100.15166l30.70868 0" fill-rule="evenodd"/><path fill="#000000" fill-opacity="0.0" d="m790.0673 88.027214l163.21265 0l0 21.133858l-163.21265 0z" fill-rule="evenodd"/><path fill="#12213a" d="m795.5048 98.50352l1.890625 2.828125q0.796875 1.171875 1.171875 1.484375q0.390625 0.3125 0.96875 0.34375l0 0.234375l-3.78125 0l0 -0.234375q0.375 -0.015625 0.546875 -0.078125q0.140625 -0.0625 0.21875 -0.1875q0.09375 -0.125 0.09375 -0.234375q0 -0.15625 -0.046875 -0.3125q-0.046875 -0.109375 -0.359375 -0.5625l-1.5 -2.265625l-1.84375 2.359375q-0.296875 0.390625 -0.359375 0.515625q-0.0625 0.125 -0.0625 0.265625q0 0.203125 0.171875 0.34375q0.1875 0.125 0.6875 0.15625l0 0.234375l-3.140625 0l0 -0.234375q0.328125 -0.03125 0.578125 -0.140625q0.40625 -0.171875 0.765625 -0.453125q0.359375 -0.296875 0.828125 -0.890625l2.09375 -2.625l-1.75 -2.546875q-0.703125 -1.03125 -1.203125 -1.34375q-0.484375 -0.328125 -1.140625 -0.34375l0 -0.25l4.09375 0l0 0.25q-0.53125 0.015625 -0.71875 0.171875q-0.1875 0.140625 -0.1875 0.328125q0 0.234375 0.3125 0.703125l1.34375 2.015625l1.578125 -1.984375q0.265625 -0.34375 0.328125 -0.46875q0.0625 -0.140625 0.0625 -0.28125q0 -0.125 -0.078125 -0.234375q-0.09375 -0.140625 -0.25 -0.1875q-0.140625 -0.0625 -0.609375 -0.0625l0 -0.25l3.125 0l0 0.25q-0.375 0.015625 -0.609375 0.109375q-0.34375 0.15625 -0.640625 0.40625q-0.296875 0.25 -0.828125 0.9375l-1.75 2.234375zm11.660339 7.5l0 0.234375q-0.984375 -0.484375 -1.640625 -1.15625q-0.9375 -0.9375 -1.453125 -2.21875q-0.5 -1.28125 -0.5 -2.671875q0 -2.015625 0.984375 -3.671875q1.0 -1.65625 2.609375 -2.375l0 0.265625q-0.796875 0.453125 -1.3125 1.21875q-0.515625 0.765625 -0.78125 1.953125q-0.25 1.171875 -0.25 2.453125q0 1.390625 0.21875 2.53125q0.171875 0.890625 0.40625 1.4375q0.25 0.546875 0.65625 1.046875q0.40625 0.5 1.0625 0.953125zm5.7821045 -4.875q-0.25 1.171875 -0.953125 1.8125q-0.703125 0.640625 -1.546875 0.640625q-1.015625 0 -1.78125 -0.84375q-0.75 -0.859375 -0.75 -2.3125q0 -1.40625 0.828125 -2.28125q0.84375 -0.890625 2.015625 -0.890625q0.875 0 1.4375 0.46875q0.578125 0.46875 0.578125 0.96875q0 0.25 -0.171875 0.40625q-0.15625 0.140625 -0.4375 0.140625q-0.375 0 -0.578125 -0.25q-0.109375 -0.125 -0.15625 -0.5q-0.03125 -0.390625 -0.25 -0.59375q-0.234375 -0.203125 -0.640625 -0.203125q-0.640625 0 -1.046875 0.484375q-0.515625 0.640625 -0.515625 1.6875q0 1.0625 0.515625 1.890625q0.53125 0.8125 1.421875 0.8125q0.640625 0 1.140625 -0.4375q0.359375 -0.296875 0.703125 -1.09375l0.1875 0.09375zm6.0718994 -3.703125l0 3.625q0 1.03125 0.046875 1.265625q0.046875 0.21875 0.15625 0.3125q0.109375 0.09375 0.25 0.09375q0.203125 0 0.453125 -0.109375l0.09375 0.234375l-1.78125 0.734375l-0.296875 0l0 -1.265625q-0.765625 0.828125 -1.171875 1.046875q-0.390625 0.21875 -0.84375 0.21875q-0.5 0 -0.875 -0.28125q-0.359375 -0.296875 -0.515625 -0.75q-0.140625 -0.46875 -0.140625 -1.296875l0 -2.65625q0 -0.421875 -0.09375 -0.578125q-0.078125 -0.171875 -0.265625 -0.265625q-0.171875 -0.09375 -0.640625 -0.078125l0 -0.25l2.09375 0l0 4.0q0 0.828125 0.28125 1.09375q0.296875 0.25 0.703125 0.25q0.28125 0 0.625 -0.171875q0.359375 -0.171875 0.84375 -0.671875l0 -3.375q0 -0.5 -0.1875 -0.671875q-0.171875 -0.1875 -0.765625 -0.203125l0 -0.25l2.03125 0zm3.1796875 -0.171875l0 1.34375q0.75 -1.34375 1.546875 -1.34375q0.34375 0 0.578125 0.21875q0.234375 0.21875 0.234375 0.5q0 0.265625 -0.171875 0.4375q-0.15625 0.171875 -0.390625 0.171875q-0.234375 0 -0.515625 -0.21875q-0.28125 -0.234375 -0.421875 -0.234375q-0.109375 0 -0.25 0.140625q-0.296875 0.265625 -0.609375 0.875l0 2.859375q0 0.5 0.125 0.75q0.09375 0.171875 0.296875 0.296875q0.21875 0.109375 0.625 0.109375l0 0.234375l-3.046875 0l0 -0.234375q0.453125 0 0.671875 -0.140625q0.15625 -0.109375 0.21875 -0.328125q0.046875 -0.109375 0.046875 -0.640625l0 -2.3125q0 -1.03125 -0.046875 -1.234375q-0.046875 -0.203125 -0.15625 -0.28125q-0.109375 -0.09375 -0.28125 -0.09375q-0.203125 0 -0.453125 0.09375l-0.078125 -0.234375l1.8125 -0.734375l0.265625 0zm4.4384155 0l0 1.34375q0.75 -1.34375 1.546875 -1.34375q0.34375 0 0.578125 0.21875q0.234375 0.21875 0.234375 0.5q0 0.265625 -0.171875 0.4375q-0.15625 0.171875 -0.390625 0.171875q-0.234375 0 -0.515625 -0.21875q-0.28125 -0.234375 -0.421875 -0.234375q-0.109375 0 -0.25 0.140625q-0.296875 0.265625 -0.609375 0.875l0 2.859375q0 0.5 0.125 0.75q0.09375 0.171875 0.296875 0.296875q0.21875 0.109375 0.625 0.109375l0 0.234375l-3.046875 0l0 -0.234375q0.453125 0 0.671875 -0.140625q0.15625 -0.109375 0.21875 -0.328125q0.046875 -0.109375 0.046875 -0.640625l0 -2.3125q0 -1.03125 -0.046875 -1.234375q-0.046875 -0.203125 -0.15625 -0.28125q-0.109375 -0.09375 -0.28125 -0.09375q-0.203125 0 -0.453125 0.09375l-0.078125 -0.234375l1.8125 -0.734375l0.265625 0zm3.7039795 2.421875q-0.015625 1.328125 0.640625 2.078125q0.65625 0.765625 1.53125 0.765625q0.578125 0 1.015625 -0.3125q0.4375 -0.328125 0.734375 -1.109375l0.1875 0.125q-0.125 0.890625 -0.78125 1.625q-0.65625 0.734375 -1.65625 0.734375q-1.0625 0 -1.828125 -0.828125q-0.765625 -0.84375 -0.765625 -2.265625q0 -1.53125 0.78125 -2.375q0.78125 -0.859375 1.96875 -0.859375q1.0 0 1.640625 0.65625q0.640625 0.65625 0.640625 1.765625l-4.109375 0zm0 -0.375l2.75 0q-0.03125 -0.578125 -0.125 -0.8125q-0.171875 -0.359375 -0.5 -0.5625q-0.3125 -0.21875 -0.65625 -0.21875q-0.546875 0 -0.984375 0.421875q-0.421875 0.421875 -0.484375 1.171875zm6.6500244 -0.78125q1.046875 -1.265625 2.0 -1.265625q0.484375 0 0.828125 0.25q0.359375 0.234375 0.5625 0.796875q0.140625 0.390625 0.140625 1.203125l0 2.546875q0 0.5625 0.09375 0.765625q0.078125 0.15625 0.234375 0.25q0.15625 0.09375 0.59375 0.09375l0 0.234375l-2.953125 0l0 -0.234375l0.125 0q0.421875 0 0.578125 -0.125q0.171875 -0.125 0.234375 -0.375q0.03125 -0.09375 0.03125 -0.609375l0 -2.4375q0 -0.8125 -0.21875 -1.1875q-0.203125 -0.375 -0.703125 -0.375q-0.78125 0 -1.546875 0.859375l0 3.140625q0 0.609375 0.0625 0.75q0.09375 0.1875 0.25 0.28125q0.171875 0.078125 0.65625 0.078125l0 0.234375l-2.953125 0l0 -0.234375l0.140625 0q0.453125 0 0.609375 -0.234375q0.15625 -0.234375 0.15625 -0.875l0 -2.21875q0 -1.078125 -0.046875 -1.3125q-0.046875 -0.234375 -0.15625 -0.3125q-0.09375 -0.078125 -0.265625 -0.078125q-0.1875 0 -0.4375 0.09375l-0.09375 -0.234375l1.796875 -0.734375l0.28125 0l0 1.265625zm6.6484375 -3.046875l0 1.953125l1.40625 0l0 0.46875l-1.40625 0l0 3.859375q0 0.578125 0.171875 0.78125q0.171875 0.203125 0.421875 0.203125q0.21875 0 0.421875 -0.125q0.203125 -0.140625 0.3125 -0.40625l0.25 0q-0.21875 0.640625 -0.640625 0.96875q-0.421875 0.3125 -0.859375 0.3125q-0.296875 0 -0.59375 -0.15625q-0.28125 -0.171875 -0.421875 -0.484375q-0.125 -0.3125 -0.125 -0.953125l0 -4.0l-0.953125 0l0 -0.21875q0.359375 -0.140625 0.734375 -0.484375q0.375 -0.34375 0.671875 -0.8125q0.140625 -0.25 0.421875 -0.90625l0.1875 0zm4.878784 2.546875l1.84375 -0.734375l0.234375 0l0 1.390625q0.46875 -0.78125 0.9375 -1.09375q0.46875 -0.328125 0.96875 -0.328125q0.90625 0 1.5 0.703125q0.734375 0.859375 0.734375 2.234375q0 1.546875 -0.875 2.5625q-0.734375 0.828125 -1.84375 0.828125q-0.484375 0 -0.828125 -0.140625q-0.265625 -0.09375 -0.59375 -0.390625l0 1.8125q0 0.609375 0.078125 0.78125q0.078125 0.171875 0.265625 0.265625q0.1875 0.09375 0.671875 0.09375l0 0.234375l-3.125 0l0 -0.234375l0.15625 0q0.359375 0 0.625 -0.140625q0.125 -0.0625 0.1875 -0.234375q0.0625 -0.15625 0.0625 -0.796875l0 -5.640625q0 -0.578125 -0.046875 -0.734375q-0.046875 -0.15625 -0.171875 -0.234375q-0.109375 -0.078125 -0.296875 -0.078125q-0.15625 0 -0.40625 0.09375l-0.078125 -0.21875zm2.078125 1.046875l0 2.21875q0 0.71875 0.0625 0.953125q0.09375 0.375 0.4375 0.671875q0.359375 0.28125 0.90625 0.28125q0.65625 0 1.046875 -0.515625q0.53125 -0.65625 0.53125 -1.859375q0 -1.375 -0.59375 -2.109375q-0.421875 -0.5 -0.984375 -0.5q-0.3125 0 -0.625 0.15625q-0.234375 0.109375 -0.78125 0.703125zm7.0703125 -4.921875l0 7.90625q0 0.5625 0.078125 0.75q0.078125 0.171875 0.25 0.265625q0.171875 0.09375 0.625 0.09375l0 0.234375l-2.921875 0l0 -0.234375q0.421875 0 0.5625 -0.078125q0.15625 -0.09375 0.234375 -0.28125q0.09375 -0.203125 0.09375 -0.75l0 -5.421875q0 -1.0 -0.046875 -1.234375q-0.046875 -0.234375 -0.15625 -0.3125q-0.09375 -0.09375 -0.25 -0.09375q-0.171875 0 -0.4375 0.109375l-0.109375 -0.234375l1.78125 -0.71875l0.296875 0zm5.031128 8.390625q-0.921875 0.703125 -1.15625 0.828125q-0.34375 0.15625 -0.75 0.15625q-0.609375 0 -1.015625 -0.421875q-0.40625 -0.421875 -0.40625 -1.109375q0 -0.4375 0.203125 -0.765625q0.265625 -0.4375 0.921875 -0.828125q0.671875 -0.390625 2.203125 -0.953125l0 -0.234375q0 -0.890625 -0.28125 -1.21875q-0.28125 -0.328125 -0.828125 -0.328125q-0.40625 0 -0.65625 0.21875q-0.234375 0.21875 -0.234375 0.5l0 0.375q0 0.3125 -0.15625 0.46875q-0.140625 0.15625 -0.390625 0.15625q-0.234375 0 -0.390625 -0.15625q-0.15625 -0.171875 -0.15625 -0.46875q0 -0.5625 0.5625 -1.03125q0.578125 -0.46875 1.625 -0.46875q0.78125 0 1.296875 0.265625q0.375 0.203125 0.5625 0.640625q0.125 0.28125 0.125 1.140625l0 2.03125q0 0.84375 0.03125 1.046875q0.03125 0.1875 0.09375 0.25q0.078125 0.0625 0.1875 0.0625q0.09375 0 0.171875 -0.046875q0.140625 -0.078125 0.53125 -0.46875l0 0.359375q-0.734375 0.96875 -1.390625 0.96875q-0.328125 0 -0.515625 -0.21875q-0.1875 -0.21875 -0.1875 -0.75zm0 -0.421875l0 -2.265625q-0.984375 0.390625 -1.265625 0.546875q-0.515625 0.28125 -0.75 0.59375q-0.21875 0.3125 -0.21875 0.6875q0 0.46875 0.28125 0.78125q0.28125 0.3125 0.65625 0.3125q0.484375 0 1.296875 -0.65625zm2.1968994 -4.6875l2.78125 0l0 0.25l-0.140625 0q-0.296875 0 -0.4375 0.125q-0.140625 0.125 -0.140625 0.3125q0 0.25 0.203125 0.703125l1.453125 3.015625l1.34375 -3.296875q0.109375 -0.265625 0.109375 -0.53125q0 -0.109375 -0.046875 -0.171875q-0.0625 -0.078125 -0.171875 -0.109375q-0.109375 -0.046875 -0.390625 -0.046875l0 -0.25l1.953125 0l0 0.25q-0.25 0.03125 -0.390625 0.109375q-0.125 0.078125 -0.28125 0.28125q-0.046875 0.09375 -0.21875 0.5l-2.421875 5.953125q-0.359375 0.859375 -0.921875 1.296875q-0.5625 0.453125 -1.09375 0.453125q-0.390625 0 -0.640625 -0.21875q-0.234375 -0.21875 -0.234375 -0.515625q0 -0.265625 0.171875 -0.4375q0.171875 -0.15625 0.484375 -0.15625q0.21875 0 0.59375 0.140625q0.265625 0.09375 0.328125 0.09375q0.1875 0 0.421875 -0.203125q0.234375 -0.203125 0.46875 -0.78125l0.421875 -1.03125l-2.140625 -4.5q-0.09375 -0.203125 -0.3125 -0.5q-0.171875 -0.21875 -0.265625 -0.296875q-0.15625 -0.109375 -0.484375 -0.1875l0 -0.25zm8.0078125 2.25q-0.015625 1.328125 0.640625 2.078125q0.65625 0.765625 1.53125 0.765625q0.578125 0 1.015625 -0.3125q0.4375 -0.328125 0.734375 -1.109375l0.1875 0.125q-0.125 0.890625 -0.78125 1.625q-0.65625 0.734375 -1.65625 0.734375q-1.0625 0 -1.828125 -0.828125q-0.765625 -0.84375 -0.765625 -2.265625q0 -1.53125 0.78125 -2.375q0.78125 -0.859375 1.96875 -0.859375q1.0 0 1.640625 0.65625q0.640625 0.65625 0.640625 1.765625l-4.109375 0zm0 -0.375l2.75 0q-0.03125 -0.578125 -0.125 -0.8125q-0.171875 -0.359375 -0.5 -0.5625q-0.3125 -0.21875 -0.65625 -0.21875q-0.546875 0 -0.984375 0.421875q-0.421875 0.421875 -0.484375 1.171875zm6.6500244 -2.046875l0 1.34375q0.75 -1.34375 1.546875 -1.34375q0.34375 0 0.578125 0.21875q0.234375 0.21875 0.234375 0.5q0 0.265625 -0.171875 0.4375q-0.15625 0.171875 -0.390625 0.171875q-0.234375 0 -0.515625 -0.21875q-0.28125 -0.234375 -0.421875 -0.234375q-0.109375 0 -0.25 0.140625q-0.296875 0.265625 -0.609375 0.875l0 2.859375q0 0.5 0.125 0.75q0.09375 0.171875 0.296875 0.296875q0.21875 0.109375 0.625 0.109375l0 0.234375l-3.046875 0l0 -0.234375q0.453125 0 0.671875 -0.140625q0.15625 -0.109375 0.21875 -0.328125q0.046875 -0.109375 0.046875 -0.640625l0 -2.3125q0 -1.03125 -0.046875 -1.234375q-0.046875 -0.203125 -0.15625 -0.28125q-0.109375 -0.09375 -0.28125 -0.09375q-0.203125 0 -0.453125 0.09375l-0.078125 -0.234375l1.8125 -0.734375l0.265625 0zm2.5789795 -2.84375l0 -0.265625q0.984375 0.484375 1.65625 1.140625q0.921875 0.953125 1.421875 2.234375q0.515625 1.28125 0.515625 2.671875q0 2.015625 -1.0 3.671875q-0.984375 1.671875 -2.59375 2.375l0 -0.234375q0.796875 -0.453125 1.3125 -1.21875q0.53125 -0.765625 0.78125 -1.9375q0.25 -1.1875 0.25 -2.46875q0 -1.390625 -0.21875 -2.53125q-0.15625 -0.890625 -0.40625 -1.421875q-0.25 -0.546875 -0.65625 -1.046875q-0.390625 -0.515625 -1.0625 -0.96875z" fill-rule="nonzero"/><path fill="#000000" fill-opacity="0.0" d="m755.5073 121.27165l30.70868 0" fill-rule="evenodd"/><path stroke="#3b82c4" stroke-width="2.6666666666666665" stroke-linejoin="round" stroke-linecap="butt" d="m755.5073 121.27165l30.70868 0" fill-rule="evenodd"/><path fill="#000000" fill-opacity="0.0" d="m790.0673 109.14721l163.21265 0l0 21.133858l-163.21265 0z" fill-rule="evenodd"/><path fill="#12213a" d="m794.9423 115.48289q1.71875 0 2.96875 1.3125q1.265625 1.296875 1.265625 3.25q0 2.015625 -1.265625 3.34375q-1.265625 1.328125 -3.078125 1.328125q-1.8125 0 -3.0625 -1.296875q-1.234375 -1.296875 -1.234375 -3.34375q0 -2.109375 1.4375 -3.4375q1.234375 -1.15625 2.96875 -1.15625zm-0.125 0.484375q-1.1875 0 -1.90625 0.875q-0.890625 1.09375 -0.890625 3.203125q0 2.15625 0.9375 3.328125q0.703125 0.875 1.859375 0.875q1.25 0 2.0625 -0.96875q0.8125 -0.96875 0.8125 -3.046875q0 -2.265625 -0.890625 -3.390625q-0.71875 -0.875 -1.984375 -0.875zm12.347839 11.15625l0 0.234375q-0.984375 -0.484375 -1.640625 -1.15625q-0.9375 -0.9375 -1.453125 -2.21875q-0.5 -1.28125 -0.5 -2.671875q0 -2.015625 0.984375 -3.671875q1.0 -1.65625 2.609375 -2.375l0 0.265625q-0.796875 0.453125 -1.3125 1.21875q-0.515625 0.765625 -0.78125 1.953125q-0.25 1.171875 -0.25 2.453125q0 1.390625 0.21875 2.53125q0.171875 0.890625 0.40625 1.4375q0.25 0.546875 0.65625 1.046875q0.40625 0.5 1.0625 0.953125zm3.6258545 -8.75q1.359375 0 2.171875 1.03125q0.703125 0.875 0.703125 2.015625q0 0.796875 -0.390625 1.625q-0.375 0.8125 -1.046875 1.234375q-0.671875 0.421875 -1.5 0.421875q-1.359375 0 -2.140625 -1.078125q-0.671875 -0.90625 -0.671875 -2.03125q0 -0.8125 0.40625 -1.625q0.40625 -0.8125 1.0625 -1.203125q0.671875 -0.390625 1.40625 -0.390625zm-0.203125 0.421875q-0.34375 0 -0.6875 0.21875q-0.34375 0.203125 -0.5625 0.71875q-0.21875 0.5 -0.21875 1.3125q0 1.296875 0.515625 2.25q0.515625 0.9375 1.375 0.9375q0.625 0 1.03125 -0.515625q0.40625 -0.53125 0.40625 -1.796875q0 -1.578125 -0.671875 -2.5q-0.46875 -0.625 -1.1875 -0.625zm3.5234375 0.34375l1.84375 -0.734375l0.234375 0l0 1.390625q0.46875 -0.78125 0.9375 -1.09375q0.46875 -0.328125 0.96875 -0.328125q0.90625 0 1.5 0.703125q0.734375 0.859375 0.734375 2.234375q0 1.546875 -0.875 2.5625q-0.734375 0.828125 -1.84375 0.828125q-0.484375 0 -0.828125 -0.140625q-0.265625 -0.09375 -0.59375 -0.390625l0 1.8125q0 0.609375 0.078125 0.78125q0.078125 0.171875 0.265625 0.265625q0.1875 0.09375 0.671875 0.09375l0 0.234375l-3.125 0l0 -0.234375l0.15625 0q0.359375 0 0.625 -0.140625q0.125 -0.0625 0.1875 -0.234375q0.0625 -0.15625 0.0625 -0.796875l0 -5.640625q0 -0.578125 -0.046875 -0.734375q-0.046875 -0.15625 -0.171875 -0.234375q-0.109375 -0.078125 -0.296875 -0.078125q-0.15625 0 -0.40625 0.09375l-0.078125 -0.21875zm2.078125 1.046875l0 2.21875q0 0.71875 0.0625 0.953125q0.09375 0.375 0.4375 0.671875q0.359375 0.28125 0.90625 0.28125q0.65625 0 1.046875 -0.515625q0.53125 -0.65625 0.53125 -1.859375q0 -1.375 -0.59375 -2.109375q-0.421875 -0.5 -0.984375 -0.5q-0.3125 0 -0.625 0.15625q-0.234375 0.109375 -0.78125 0.703125zm4.5859375 -1.046875l1.84375 -0.734375l0.234375 0l0 1.390625q0.46875 -0.78125 0.9375 -1.09375q0.46875 -0.328125 0.96875 -0.328125q0.90625 0 1.5 0.703125q0.734375 0.859375 0.734375 2.234375q0 1.546875 -0.875 2.5625q-0.734375 0.828125 -1.84375 0.828125q-0.484375 0 -0.828125 -0.140625q-0.265625 -0.09375 -0.59375 -0.390625l0 1.8125q0 0.609375 0.078125 0.78125q0.078125 0.171875 0.265625 0.265625q0.1875 0.09375 0.671875 0.09375l0 0.234375l-3.125 0l0 -0.234375l0.15625 0q0.359375 0 0.625 -0.140625q0.125 -0.0625 0.1875 -0.234375q0.0625 -0.15625 0.0625 -0.796875l0 -5.640625q0 -0.578125 -0.046875 -0.734375q-0.046875 -0.15625 -0.171875 -0.234375q-0.109375 -0.078125 -0.296875 -0.078125q-0.15625 0 -0.40625 0.09375l-0.078125 -0.21875zm2.078125 1.046875l0 2.21875q0 0.71875 0.0625 0.953125q0.09375 0.375 0.4375 0.671875q0.359375 0.28125 0.90625 0.28125q0.65625 0 1.046875 -0.515625q0.53125 -0.65625 0.53125 -1.859375q0 -1.375 -0.59375 -2.109375q-0.421875 -0.5 -0.984375 -0.5q-0.3125 0 -0.625 0.15625q-0.234375 0.109375 -0.78125 0.703125zm7.9296875 -1.8125q1.359375 0 2.171875 1.03125q0.703125 0.875 0.703125 2.015625q0 0.796875 -0.390625 1.625q-0.375 0.8125 -1.046875 1.234375q-0.671875 0.421875 -1.5 0.421875q-1.359375 0 -2.140625 -1.078125q-0.671875 -0.90625 -0.671875 -2.03125q0 -0.8125 0.40625 -1.625q0.40625 -0.8125 1.0625 -1.203125q0.671875 -0.390625 1.40625 -0.390625zm-0.203125 0.421875q-0.34375 0 -0.6875 0.21875q-0.34375 0.203125 -0.5625 0.71875q-0.21875 0.5 -0.21875 1.3125q0 1.296875 0.515625 2.25q0.515625 0.9375 1.375 0.9375q0.625 0 1.03125 -0.515625q0.40625 -0.53125 0.40625 -1.796875q0 -1.578125 -0.671875 -2.5q-0.46875 -0.625 -1.1875 -0.625zm5.6953125 0.84375q1.046875 -1.265625 2.0 -1.265625q0.484375 0 0.828125 0.25q0.359375 0.234375 0.5625 0.796875q0.140625 0.390625 0.140625 1.203125l0 2.546875q0 0.5625 0.09375 0.765625q0.078125 0.15625 0.234375 0.25q0.15625 0.09375 0.59375 0.09375l0 0.234375l-2.953125 0l0 -0.234375l0.125 0q0.421875 0 0.578125 -0.125q0.171875 -0.125 0.234375 -0.375q0.03125 -0.09375 0.03125 -0.609375l0 -2.4375q0 -0.8125 -0.21875 -1.1875q-0.203125 -0.375 -0.703125 -0.375q-0.78125 0 -1.546875 0.859375l0 3.140625q0 0.609375 0.0625 0.75q0.09375 0.1875 0.25 0.28125q0.171875 0.078125 0.65625 0.078125l0 0.234375l-2.953125 0l0 -0.234375l0.140625 0q0.453125 0 0.609375 -0.234375q0.15625 -0.234375 0.15625 -0.875l0 -2.21875q0 -1.078125 -0.046875 -1.3125q-0.046875 -0.234375 -0.15625 -0.3125q-0.09375 -0.078125 -0.265625 -0.078125q-0.1875 0 -0.4375 0.09375l-0.09375 -0.234375l1.796875 -0.734375l0.28125 0l0 1.265625zm5.9296875 1.15625q-0.015625 1.328125 0.640625 2.078125q0.65625 0.765625 1.53125 0.765625q0.578125 0 1.015625 -0.3125q0.4375 -0.328125 0.734375 -1.109375l0.1875 0.125q-0.125 0.890625 -0.78125 1.625q-0.65625 0.734375 -1.65625 0.734375q-1.0625 0 -1.828125 -0.828125q-0.765625 -0.84375 -0.765625 -2.265625q0 -1.53125 0.78125 -2.375q0.78125 -0.859375 1.96875 -0.859375q1.0 0 1.640625 0.65625q0.640625 0.65625 0.640625 1.765625l-4.109375 0zm0 -0.375l2.75 0q-0.03125 -0.578125 -0.125 -0.8125q-0.171875 -0.359375 -0.5 -0.5625q-0.3125 -0.21875 -0.65625 -0.21875q-0.546875 0 -0.984375 0.421875q-0.421875 0.421875 -0.484375 1.171875zm6.6500244 -0.78125q1.046875 -1.265625 2.0 -1.265625q0.484375 0 0.828125 0.25q0.359375 0.234375 0.5625 0.796875q0.140625 0.390625 0.140625 1.203125l0 2.546875q0 0.5625 0.09375 0.765625q0.078125 0.15625 0.234375 0.25q0.15625 0.09375 0.59375 0.09375l0 0.234375l-2.953125 0l0 -0.234375l0.125 0q0.421875 0 0.578125 -0.125q0.171875 -0.125 0.234375 -0.375q0.03125 -0.09375 0.03125 -0.609375l0 -2.4375q0 -0.8125 -0.21875 -1.1875q-0.203125 -0.375 -0.703125 -0.375q-0.78125 0 -1.546875 0.859375l0 3.140625q0 0.609375 0.0625 0.75q0.09375 0.1875 0.25 0.28125q0.171875 0.078125 0.65625 0.078125l0 0.234375l-2.953125 0l0 -0.234375l0.140625 0q0.453125 0 0.609375 -0.234375q0.15625 -0.234375 0.15625 -0.875l0 -2.21875q0 -1.078125 -0.046875 -1.3125q-0.046875 -0.234375 -0.15625 -0.3125q-0.09375 -0.078125 -0.265625 -0.078125q-0.1875 0 -0.4375 0.09375l-0.09375 -0.234375l1.796875 -0.734375l0.28125 0l0 1.265625zm6.6484375 -3.046875l0 1.953125l1.40625 0l0 0.46875l-1.40625 0l0 3.859375q0 0.578125 0.171875 0.78125q0.171875 0.203125 0.421875 0.203125q0.21875 0 0.421875 -0.125q0.203125 -0.140625 0.3125 -0.40625l0.25 0q-0.21875 0.640625 -0.640625 0.96875q-0.421875 0.3125 -0.859375 0.3125q-0.296875 0 -0.59375 -0.15625q-0.28125 -0.171875 -0.421875 -0.484375q-0.125 -0.3125 -0.125 -0.953125l0 -4.0l-0.953125 0l0 -0.21875q0.359375 -0.140625 0.734375 -0.484375q0.375 -0.34375 0.671875 -0.8125q0.140625 -0.25 0.421875 -0.90625l0.1875 0zm1.8592529 -1.0625l0 -0.265625q0.984375 0.484375 1.65625 1.140625q0.921875 0.953125 1.421875 2.234375q0.515625 1.28125 0.515625 2.671875q0 2.015625 -1.0 3.671875q-0.984375 1.671875 -2.59375 2.375l0 -0.234375q0.796875 -0.453125 1.3125 -1.21875q0.53125 -0.765625 0.78125 -1.9375q0.25 -1.1875 0.25 -2.46875q0 -1.390625 -0.21875 -2.53125q-0.15625 -0.890625 -0.40625 -1.421875q-0.25 -0.546875 -0.65625 -1.046875q-0.390625 -0.515625 -1.0625 -0.96875z" fill-rule="nonzero"/></g></svg>